<svg width="80" height="80" viewBox="0 0 165 185" fill="none" xmlns="http://www.w3.org/2000/svg">
<path d="M35.4668 134H27V101.363L16.8926 104.498V97.6133L34.5586 91.2852H35.4668V134ZM69.1582 116.949C66.9512 119.117 64.373 120.201 61.4238 120.201C57.6543 120.201 54.6367 118.912 52.3711 116.334C50.1055 113.736 48.9727 110.24 48.9727 105.846C48.9727 103.053 49.5781 100.494 50.7891 98.1699C52.0195 95.8262 53.7285 94.0098 55.916 92.7207C58.1035 91.4121 60.5645 90.7578 63.2988 90.7578C66.1113 90.7578 68.6113 91.4609 70.7988 92.8672C72.9863 94.2734 74.6855 96.2949 75.8965 98.9316C77.1074 101.568 77.7227 104.586 77.7422 107.984V111.119C77.7422 118.229 75.9746 123.814 72.4395 127.877C68.9043 131.939 63.8945 134.107 57.4102 134.381L55.3301 134.41V127.35L57.2051 127.32C64.5684 126.988 68.5527 123.531 69.1582 116.949ZM63.5039 113.727C64.8711 113.727 66.043 113.375 67.0195 112.672C68.0156 111.969 68.7676 111.119 69.2754 110.123V106.637C69.2754 103.766 68.7285 101.539 67.6348 99.957C66.541 98.375 65.0762 97.584 63.2402 97.584C61.541 97.584 60.1445 98.3652 59.0508 99.9277C57.957 101.471 57.4102 103.414 57.4102 105.758C57.4102 108.082 57.9375 109.996 58.9922 111.5C60.0664 112.984 61.5703 113.727 63.5039 113.727ZM103.611 116.949C101.404 119.117 98.8262 120.201 95.877 120.201C92.1074 120.201 89.0898 118.912 86.8242 116.334C84.5586 113.736 83.4258 110.24 83.4258 105.846C83.4258 103.053 84.0312 100.494 85.2422 98.1699C86.4727 95.8262 88.1816 94.0098 90.3691 92.7207C92.5566 91.4121 95.0176 90.7578 97.752 90.7578C100.564 90.7578 103.064 91.4609 105.252 92.8672C107.439 94.2734 109.139 96.2949 110.35 98.9316C111.561 101.568 112.176 104.586 112.195 107.984V111.119C112.195 118.229 110.428 123.814 106.893 127.877C103.357 131.939 98.3477 134.107 91.8633 134.381L89.7832 134.41V127.35L91.6582 127.32C99.0215 126.988 103.006 123.531 103.611 116.949ZM97.957 113.727C99.3242 113.727 100.496 113.375 101.473 112.672C102.469 111.969 103.221 111.119 103.729 110.123V106.637C103.729 103.766 103.182 101.539 102.088 99.957C100.994 98.375 99.5293 97.584 97.6934 97.584C95.9941 97.584 94.5977 98.3652 93.5039 99.9277C92.4102 101.471 91.8633 103.414 91.8633 105.758C91.8633 108.082 92.3906 109.996 93.4453 111.5C94.5195 112.984 96.0234 113.727 97.957 113.727ZM143.309 117.945H148.143V124.771H143.309V134H134.842V124.771H117.352L116.971 119.439L134.754 91.3438H143.309V117.945ZM125.408 117.945H134.842V102.887L134.285 103.854L125.408 117.945Z" fill="white"/>
</svg>
