<svg width="80" height="100" viewBox="0 0 102 134" fill="none" xmlns="http://www.w3.org/2000/svg">
<path d="M63.7283 105.017C68.4068 106.967 78.5827 112.506 81.8576 119.058M81.2733 118.473C81.2733 112.232 82.7939 97.7616 88.876 89.8048M2.10505 21.9806L2.00001 111.905C1.98711 122.953 10.929 131.919 21.9723 131.932L79.8759 132C90.9192 132.013 99.882 123.067 99.8949 112.019L100 22.095C100.013 11.0471 91.071 2.08062 80.0277 2.06771L22.1241 2.00001C11.0808 1.9871 2.11796 10.9327 2.10505 21.9806ZM15.7717 112.038H41.5037C42.7956 112.038 43.843 110.99 43.843 109.697C43.843 108.405 42.7956 107.357 41.5037 107.357H15.7717C14.4797 107.357 13.4324 108.405 13.4324 109.697C13.4324 110.99 14.4797 112.038 15.7717 112.038ZM16.3566 21.9358H80.6885C82.3035 21.9358 83.6127 20.6261 83.6127 19.0105C83.6127 17.3948 82.3035 16.0851 80.6885 16.0851H16.3566C14.7416 16.0851 13.4324 17.3948 13.4324 19.0105C13.4324 20.6261 14.7416 21.9358 16.3566 21.9358ZM15.7717 99.1659H41.5037C42.7956 99.1659 43.843 98.1181 43.843 96.8256C43.843 95.5331 42.7956 94.4854 41.5037 94.4854H15.7717C14.4797 94.4854 13.4324 95.5331 13.4324 96.8256C13.4324 98.1181 14.4797 99.1659 15.7717 99.1659ZM36.8258 54.7H84.7809C86.0728 54.7 87.1201 53.6523 87.1201 52.3598C87.1201 51.0673 86.0728 50.0195 84.7809 50.0195H36.8258C35.5338 50.0195 34.4865 51.0673 34.4865 52.3598C34.4865 53.6523 35.5338 54.7 36.8258 54.7ZM69.5774 42.9974H84.7827C86.0747 42.9974 87.122 41.9497 87.122 40.6572C87.122 39.3647 86.0747 38.3169 84.7827 38.3169H69.5774C68.2855 38.3169 67.2382 39.3647 67.2382 40.6572C67.2382 41.9497 68.2855 42.9974 69.5774 42.9974ZM15.7717 42.9985H57.8786C59.1706 42.9985 60.2179 41.9507 60.2179 40.6582C60.2179 39.3658 59.1706 38.318 57.8786 38.318H15.7717C14.4797 38.318 13.4324 39.3658 13.4324 40.6582C13.4324 41.9507 14.4797 42.9985 15.7717 42.9985ZM15.7717 66.4015H41.5037C42.7956 66.4015 43.843 65.3538 43.843 64.0613C43.843 62.7688 42.7956 61.7211 41.5037 61.7211H15.7717C14.4797 61.7211 13.4324 62.7688 13.4324 64.0613C13.4324 65.3538 14.4797 66.4015 15.7717 66.4015ZM50.8618 66.4015H84.7813C86.0733 66.4015 87.1206 65.3538 87.1206 64.0613C87.1206 62.7688 86.0733 61.7211 84.7813 61.7211H50.8618C49.5699 61.7211 48.5226 62.7688 48.5226 64.0613C48.5226 65.3538 49.5699 66.4015 50.8618 66.4015ZM15.7717 54.7H26.2984C27.5904 54.7 28.6377 53.6523 28.6377 52.3598C28.6377 51.0673 27.5904 50.0195 26.2984 50.0195H15.7717C14.4797 50.0195 13.4324 51.0673 13.4324 52.3598C13.4324 53.6523 14.4797 54.7 15.7717 54.7Z" stroke="white" stroke-width="3"/>
</svg>
