<svg width="561" height="310" viewBox="0 0 561 310" fill="none" xmlns="http://www.w3.org/2000/svg">
<path d="M383.433 68.5501L384.638 67.3969L385.376 68.2524H385.764L386.735 67.3226L387.629 66.318L389.338 65.5742L390.582 66.4671L389.883 68.3272V69.3687L389.067 70.15L387.784 70.7084L386.386 71.2294H384.988L383.939 72.234L382.268 71.6756L381.413 70.485L381.025 69.964L380.869 69.3687L382.035 69.8897L382.617 69.3313L383.433 68.5501Z" fill="#B3B3B3" stroke="black"/>
<path d="M377.994 76.2145L378.926 75.8426H379.704L380.48 75.0987L380.092 73.5357H378.849L379.16 72.1966V71.2294L378.149 71.527H375.663L374.847 72.3083L373.565 73.1638L372.632 72.2709L370.379 72.9404L370.535 74.2801L371.118 74.8385L371.972 75.6566L372.555 76.2145L371.7 76.8846L370.535 75.9174L369.913 76.5122L369.058 75.6935L367.116 76.0659L366.261 75.6197L365.872 76.5869L366.494 77.1817L365.328 77.7775V79.1909L366.261 80.0839L366.027 81.1259H366.882L367.97 82.1679L367.659 83.3584L369.058 84.028L370.923 84.1023L371.7 84.8461H373.099L374.73 84.3999V83.2094L373.72 82.3164L374.264 81.7954L375.08 82.5767L376.518 80.0844L377.877 78.7821L378.461 79.34L379.704 78.1494L380.092 77.0331L378.693 76.5869L377.761 77.4799L376.596 76.6612L375.197 75.8426L373.798 74.8754L374.264 73.9082L375.003 73.2012L375.585 75.0982L376.479 75.9543L377.994 76.2145Z" fill="#B3B3B3" stroke="black"/>
<path d="M379.471 84.6232L378.771 85.2185L379.315 86.7067L380.209 87.5628L380.947 86.1857V85.07L380.403 84.549L379.471 84.6232Z" fill="#B3B3B3" stroke="black"/>
<path d="M383.123 88.7902L382.578 89.9808L383.045 90.4275L383.744 89.0136L385.531 88.6411L387.086 88.0459L389.183 86.8553L388.096 84.9209H386.619L384.521 84.2508L383.55 85.1068L382.656 85.9624L381.762 86.8184L382.268 87.9716L383.123 88.7902Z" fill="#B3B3B3" stroke="black"/>
<path d="M365.173 82.7627L364.473 82.0931L363.23 82.0188L364.046 82.8L364.551 84.5485H365.561V83.5813L365.173 82.7627Z" fill="#B3B3B3" stroke="black"/>
<path d="M327.175 111.56L326.32 111.709L324.883 113.085V114.015H326.087L326.476 114.908L327.486 114.462L328.652 113.345V111.56H327.175Z" fill="#B3B3B3" stroke="black"/>
<path d="M377.602 60.1418L376.98 59.3232L376.514 60.1418L377.019 60.6254L377.602 60.1418Z" fill="#B3B3B3" stroke="black"/>
<path d="M372.629 91.841L371.152 91.5433L370.686 91.9153L371.541 92.2872L372.629 93.1058L373.095 92.5106L372.629 91.841Z" fill="#B3B3B3" stroke="black"/>
<path d="M310.698 93.4783L309.999 93.1063L309.688 93.553L310.387 93.9993L310.698 93.4783Z" fill="#B3B3B3" stroke="black"/>
<path d="M306.658 86.4839L305.88 86.9302L306.968 87.4512L307.745 87.9717L308.6 87.7488L308.367 86.7816L307.512 87.0045L306.658 86.4839Z" fill="#B3B3B3" stroke="black"/>
<path d="M303.005 82.3164L302.073 82.6889L301.141 81.1259L300.441 80.4563L299.586 81.4235L299.042 82.8374V81.7959L299.12 79.9353L298.577 78.8938L297.799 78.9681L296.712 80.2329L296.789 81.3492L296.323 82.0936L296.634 84.1028L295.701 84.9957L295.779 87.0044L295.313 88.716L294.924 90.4275L295.624 90.7995L297.1 89.6832L297.955 89.1627L299.897 88.1955L301.451 88.0464L303.394 86.6325L304.326 84.9209L303.705 83.4327L303.005 82.3164Z" fill="#B3B3B3" stroke="black"/>
<path d="M292.049 74.8754L291.35 75.694L290.728 76.8103L290.184 76.5869L290.572 75.173V73.6848L288.863 74.2058C288.863 74.2058 287.853 74.4292 287.62 74.5035C287.387 74.5777 286.221 74.9502 286.221 74.9502L285.677 76.0664L285.366 77.0337L284.667 77.8523L284.9 78.8195L283.579 79.7867L284.201 80.3077L285.133 80.0101L285.91 81.0516L285.988 82.0188L286.687 82.8374L288.474 82.986L288.708 83.9532L289.951 83.2093L290.572 84.1766L292.282 84.7718L293.914 84.0275L294.691 82.9855L294.07 81.7949L293.059 80.4553L293.836 79.9343L294.147 78.6695L293.758 77.2555L293.914 75.8416L292.049 74.8754Z" fill="#B3B3B3" stroke="black"/>
<path d="M290.651 97.6457L289.873 98.5381L288.863 98.7615L289.796 99.4311L290.728 98.5381L290.651 97.6457Z" fill="#B3B3B3" stroke="black"/>
<path d="M278.529 97.4218L277.674 97.348L277.286 97.9428L277.829 98.3895L278.529 97.4218Z" fill="#B3B3B3" stroke="black"/>
<path d="M269.67 117.736L268.738 118.183C268.738 118.183 269.126 119.299 269.126 119.15C269.126 119.001 269.826 118.853 269.826 118.853L269.67 117.736Z" fill="#B3B3B3" stroke="black"/>
<path d="M263.376 112.453L262.988 111.04L262.133 111.709L262.599 112.602L263.376 112.453Z" fill="#B3B3B3" stroke="black"/>
<path d="M262.677 120.788L262.522 121.606H263.843L264.542 122.275L264.62 121.159L263.843 121.01L262.677 120.788Z" fill="#B3B3B3" stroke="black"/>
<path d="M258.17 76.6612L257.704 77.1079L258.248 77.4056L259.103 78.0008L259.336 77.2565L258.17 76.6612Z" fill="#B3B3B3" stroke="black"/>
<path d="M253.431 128.526L252.887 129.195L253.197 130.088L253.741 130.758L254.518 129.94L254.829 128.972L254.13 128.302L253.431 128.526Z" fill="#B3B3B3" stroke="black"/>
<path d="M248.535 133.214L249.234 132.618H250.322L251.332 131.726L250.4 130.833L249.468 131.056L248.613 131.875L247.68 132.618L248.535 133.214Z" fill="#B3B3B3" stroke="black"/>
<path d="M246.67 122.796L245.971 123.391L246.437 124.061L247.369 123.466L248.535 123.763L248.224 123.094L246.67 122.796Z" fill="#B3B3B3" stroke="black"/>
<path d="M244.028 126.442L243.096 125.773L242.707 126.74L243.329 127.261L244.028 126.442Z" fill="#B3B3B3" stroke="black"/>
<path d="M236.492 123.317L237.269 123.392V122.648L236.026 122.35L236.647 121.68L235.947 120.713L235.093 121.011L234.782 120.936L233.927 121.531L234.238 122.201L233.617 123.02L233.772 123.541L235.171 123.912L236.492 123.317Z" fill="#B3B3B3" stroke="black"/>
<path d="M201.058 132.693L199.815 133.288L198.883 133.586L199.116 135.521L199.271 136.563L200.126 136.785L200.437 138.348L202.069 138.497L202.612 137.232L201.835 135.967L201.913 134.553L201.058 132.693Z" fill="#B3B3B3" stroke="black"/>
<path d="M176.115 129.121L175.028 127.782L174.95 126.666L173.551 126.219L171.842 126.666L170.831 127.931L170.055 128.898L170.598 130.312L171.842 130.758L173.007 131.204L174.095 130.461L175.416 130.684L176.115 129.121Z" fill="#B3B3B3" stroke="black"/>
<path d="M211.315 97.6452L212.247 98.5381H213.413V97.4218L215.122 98.0171L215.977 97.1242L216.832 96.157H217.92L219.784 95.3388L221.106 95.785H223.048L224.33 94.5571L225.845 94.6687L226.544 95.6365H228.176L228.953 96.3803L230.352 96.0079H232.295L233.577 94.7804L235.092 93.9992L237.112 93.2548H238.977L240.065 94.8921V96.678L238.433 98.0919L236.957 99.431L235.015 99.5801L232.683 100.622L230.585 99.8777L229.575 100.845L227.166 100.771H224.058L222.892 101.961H220.484L218.697 102.928L219.241 104.119L217.997 104.565L216.521 104.417H215.2L215.044 105.235L213.646 104.863V106.203L212.247 107.17L211.081 107.988V106.724L210.149 107.542L210.382 109.03H209.45L208.789 108.398V109.105V110.221L208.109 109.57L207.236 110.406L206.497 111.114H205.486L204.71 112.081L203.7 113.718H202.068L200.747 114.76V116.174L199.426 116.695L198.959 118.183L197.872 119.224V121.085L197.328 122.424L198.027 124.359L197.405 126.294L198.26 127.558L198.648 128.898L198.182 129.345L196.862 129.94V128.972L195.618 128.303H194.764L193.831 126.963L193.288 127.261L191.656 125.773L190.412 124.508L190.879 123.168L192.122 122.796L192.588 122.052L191.733 121.383L191.811 119.596L191.267 119.448L190.723 118.108L189.558 118.034L188.625 116.769L188.936 115.132L190.179 113.495L191.656 113.644L192.122 114.165L192.665 114.388L192.899 113.42L194.686 112.9L196.085 111.486L195.152 110.519L196.396 109.774L197.794 110.295L198.183 109.179V108.063H199.97L200.825 108.881L201.718 108.026L201.912 107.245L203.855 106.872L203.195 106.24L201.524 105.682V105.087L203.467 104.565L205.487 104.045L206.497 103.078H207.818V102.185L209.683 102.11L208.673 101.143L210.305 101.068L210.926 101.664L210.848 100.175L211.625 99.431L210.771 98.4638L211.315 97.6452Z" fill="#B3B3B3" stroke="black"/>
<path d="M264.703 67.0284L264.061 67.1514L263.644 67.5509L264.286 68.1659L265.153 67.8894L265.666 67.3974L264.703 67.0284Z" fill="#B3B3B3" stroke="black"/>
<path d="M279.409 65.7985L278.831 66.352L279.28 66.7824L279.762 67.2434L280.757 66.352V65.737L279.409 65.7985Z" fill="#B3B3B3" stroke="black"/>
<path d="M282.491 69.3653L283.198 70.0417L282.267 70.9332L281.656 72.0711L282.491 73.178L282.812 74.285L284.289 75.5149L285.638 74.285H286.537L287.886 73.547L289.491 73.055L289.041 71.5791V69.7342L290.005 68.9348L289.202 68.1658L287.564 66.5979L286.987 65.368L285.574 64.999L285.381 66.229L284.225 66.7209L282.491 67.8279V69.3653Z" fill="#B3B3B3" stroke="black"/>
<path d="M283.39 75.5764L281.785 75.2074L280.693 75.0844L280.886 76.4373V77.2983L282.299 77.6673L282.877 78.2207L283.744 77.3903L284.225 76.1913L283.39 75.5764Z" fill="#B3B3B3" stroke="black"/>
<path d="M265.666 107.309L264.639 106.694L264.222 107.093L264.767 107.555L265.666 107.309Z" fill="#B3B3B3" stroke="black"/>
<path d="M245.117 55.1597L244.475 55.3442L244.988 56.0206V56.6356H245.887V55.4671L245.117 55.1597Z" fill="#B3B3B3" stroke="black"/>
<path d="M244.924 60.3868L244.475 61.0633L242.805 61.3708L241.713 61.9243L242.548 62.2932L242.163 63.1542L242.869 63.3387H244.282L245.406 62.2622L246.241 61.4628L245.952 60.2639L244.924 60.3868Z" fill="#B3B3B3" stroke="black"/>
<path d="M239.594 59.2799L239.241 59.6179L239.915 60.2638L241.135 59.8334V58.8494H240.429L239.594 59.2799Z" fill="#B3B3B3" stroke="black"/>
<path d="M240.718 62.2622L241.071 61.2478H240.108L238.663 61.2168L237.732 60.2023L237.025 60.8788L236.512 61.8627V63.0927L237.603 63.2771L237.86 64.0151L239.209 63.7076L240.076 62.8772L240.718 62.2622Z" fill="#B3B3B3" stroke="black"/>
<path d="M234.842 65.491L234.425 65.8905V66.6594H235.291L235.613 65.6755L234.842 65.491Z" fill="#B3B3B3" stroke="black"/>
<path d="M232.402 63.7076L232.98 64.2611L234.328 63.9536L234.713 63.0927L235.677 63.4001L235.163 62.2932L234.296 61.4628L233.044 62.3547L232.594 61.9242H231.182V62.8467L230.411 63.5846L230.86 64.0151L232.402 63.7076Z" fill="#B3B3B3" stroke="black"/>
<path d="M241.103 52.8533L240.172 52.0848L239.787 52.8228L240.461 53.4683L241.103 52.8533Z" fill="#B3B3B3" stroke="black"/>
<path d="M238.759 53.8067H237.732V54.9136L238.823 55.9591V56.82L239.787 56.3895L239.209 55.2211L238.759 53.8067Z" fill="#B3B3B3" stroke="black"/>
<path d="M231.985 57.896L232.337 57.0045H231.438L231.246 57.189L231.985 57.896Z" fill="#B3B3B3" stroke="black"/>
<path d="M233.814 59.5874L233.108 58.4189L232.498 59.0029L233.108 59.6489L233.814 59.5874Z" fill="#B3B3B3" stroke="black"/>
<path d="M234.392 55.5901L233.686 55.7131V56.5125H234.585L234.392 55.5901Z" fill="#B3B3B3" stroke="black"/>
<path d="M235.099 57.8655L234.939 57.7115V58.419H235.677L235.099 57.8655Z" fill="#B3B3B3" stroke="black"/>
<path d="M235.677 59.3414L235.998 59.6489L236.576 59.0954L235.677 59.3414Z" fill="#B3B3B3" stroke="black"/>
<path d="M237.346 56.0821H236.576V56.943L237.346 57.0045V56.0821Z" fill="#B3B3B3" stroke="black"/>
<path d="M235.869 54.3602H235.42L235.869 55.1597L236.287 54.7597L235.869 54.3602Z" fill="#B3B3B3" stroke="black"/>
<path d="M227.136 59.5259L226.654 59.9869L227.489 60.7863L228.42 60.8173V59.3414L227.778 58.5419L227.136 59.5259Z" fill="#B3B3B3" stroke="black"/>
<path d="M230.218 58.6649L229.255 58.5419L229.576 59.4029H230.218V58.6649Z" fill="#B3B3B3" stroke="black"/>
<path d="M222.962 54.7292L221.87 55.2826V56.0206L220.521 55.0982L219.494 55.4671L219.815 56.943L220.778 56.6356V57.6195L221.806 57.8655L222.737 56.9735L224.053 56.4511L225.145 56.7586H226.751L227.906 55.6516L226.815 54.6062L227.553 53.8987L226.301 53.1918L225.659 53.6222L225.017 54.2372V54.9137L224.278 55.6206L222.962 54.7292Z" fill="#B3B3B3" stroke="black"/>
<path d="M221.87 53.3762L222.448 53.9297L223.54 53.4992L223.989 53.9297V53.0072L223.251 52.2998H222.576L221.998 52.0848H220.586L219.751 51.2853L219.173 52.3923L219.912 53.0992L220.2 53.9297L221.87 53.3762Z" fill="#B3B3B3" stroke="black"/>
<path d="M224.053 59.4029L223.251 58.5724H222.705L222.897 59.3414L224.053 59.4029Z" fill="#B3B3B3" stroke="black"/>
<path d="M223.475 60.2023L222.897 60.7558L223.347 61.1863L224.439 61.4323L223.732 60.7558L223.475 60.2023Z" fill="#B3B3B3" stroke="black"/>
<path d="M229.448 52.4538L228.163 52.2693V53.0687H228.805L229.448 52.4538Z" fill="#B3B3B3" stroke="black"/>
<path d="M453.802 38.4326L454.487 36.0549L457.099 33.6359L460.01 30.8479L461.337 29.5771L463.906 28.511L465.746 27.4862L467.459 25.8465L469.214 24.1654L471.355 23.3453L472.896 21.2136L475.807 20.3935L477.348 18.8354L479.232 18.0153L480.431 17.3595L481.801 18.6716L483.77 18.0975L485.525 19.3682L486.681 18.2613L488.736 17.1952V16.2113L486.681 16.6211L484.284 16.4573L482.743 16.0474L483.256 14.5715L484.883 13.5054L483.513 13.1773V12.4393L484.455 12.522L484.626 11.0461L485.483 9.89831L486.681 8.75054L488.736 8.01258H489.336L490.877 5.96254C490.877 5.96254 492.333 5.55273 492.846 5.06076C493.36 4.56879 492.846 6.45451 492.846 6.45451L493.96 7.3563L494.815 8.17641L493.874 10.0621C493.874 10.0621 495.158 10.0621 495.672 9.57016C496.186 9.07819 495.672 10.5541 495.672 10.5541V12.276L493.703 13.5059L495.244 13.7519L496.186 12.8501L498.198 13.5881V12.7271L499.782 14.2439L500.895 15.8841L501.837 15.6381L502.778 14.4904V15.5565L503.378 16.8685H501.58V17.5243L503.035 17.9342L502.265 20.0659L500.295 20.2297L498.497 22.1154L497.556 24.0833L495.758 24.6574L494.473 24.1654H492.846L491.391 26.2155L492.033 27.4454V29.5363L490.62 30.8892L489.507 30.0691L488.394 30.8892H486.767L485.825 30.1513L484.969 29.6593L484.841 30.4381L485.483 31.053L484.712 31.3812L484.198 31.8731L485.697 32.1191V33.2261L486.852 34.333L488.736 33.841H490.021L490.106 35.3991L490.877 34.6611L492.204 35.9324L493.617 37.2853L494.302 39.663L494.644 41.5487L493.274 43.6804H491.99L490.192 44.4184L489.593 45.73L491.048 45.1559H491.99L490.62 46.7144L491.476 47.534L492.589 47.1242V45.5662L493.617 44.8282L495.458 44.7874L496.528 43.7626L497.042 42.9425L498.326 43.0246L499.354 42.8608L501.237 42.7787V43.9264H502.778L503.207 43.1476H504.705L505.604 42.2867L506.717 42.1229L507.659 42.8608L509.029 41.8769L509.671 43.312L510.913 44.501V46.2229L509.2 46.8787L508.087 49.1738H506.289L505.776 49.9117L507.787 51.1825L507.145 51.7975L508.601 53.9297L509.2 56.5533V59.5052L509.714 61.8012L510.57 63.7691L510.999 66.3927L511.855 68.9348L513.482 70.3285V72.7062L514.338 75.9862L515.793 77.5442L516.735 78.446L515.28 79.676L513.739 78.938L511.598 79.5938L510.485 82.0536L508.687 84.5135L509.629 85.4158L508.944 87.7118V88.9417L510.399 91.0734V92.3855L508.772 91.6476L507.574 90.4993L506.546 90.5815L507.488 92.9592V94.5172L509.072 95.2144L507.488 96.7311H506.46V98.8628L505.519 99.7646L506.803 101.815L507.831 102.799L509.029 103.946L510.656 105.504L510.998 107.8L511.255 109.604L513.61 110.793L515.023 112.146H517.42L516.778 110.752V110.055L517.592 109.276L518.191 108.046L520.417 110.178L520.845 112.064L523.071 113.54L525.276 114.011L526.154 113.171H527.566L529.236 114.77L528.551 116.328L526.839 116.82L527.353 118.788L529.151 121.657L530.735 122.026L531.976 123.215L534.887 122.887L536.6 124.199L537.199 125.675L536.172 126.331L534.716 127.233L533.86 129.037L534.459 132.317L536.172 134.859L537.67 135.392L538.398 136.089L540.881 136.663V137.647L538.997 137.893V139.369L538.312 140.845L539.169 143.796L540.624 144.371L542.85 146.502L544.477 147.978L544.82 150.602L545.676 154.046L546.104 156.26V157.899L545.162 156.669H542.679L541.095 155.891L539.854 154.701H538.141L536.6 153.226L533.603 151.913L530.777 150.766L527.524 149.126L526.582 147.896L525.041 146.912L523.328 146.584L519.647 145.518L517.249 144.288L514.937 142.812L513.824 140.844L511.341 138.466L509.629 136.745L509.628 135.023L508.43 133.875L508.173 131.989L506.717 130.021L505.133 129.693V128.996L505.861 128.299L506.46 127.069L505.647 125.716L506.418 124.978L507.06 124.363L506.204 121.903L505.776 119.28L504.748 116.246L503.121 114.196L502.436 111.49L501.666 108.948L500.809 106.898L499.782 103.864L498.754 103.044L498.668 101.404L499.268 99.4359V98.2882V96.8944L498.241 95.9105L497.127 93.8605H496.015L494.944 93.4915L493.96 92.5484L492.76 91.0724L490.962 90.0064V88.1206L492.589 86.6452L492.033 86.1119L490.706 87.3827L488.822 88.3666V90.0885L488.308 91.4006L489.335 92.3024L490.834 93.7375L492.247 95.0904H493.96L493.788 96.1565L493.017 96.0743L492.204 97.1813L493.274 98.206V100.83L494.131 102.798L494.302 105.913L493.703 107.8L493.017 106.161L491.476 105.423L491.477 107.473L490.192 106.243L489.336 105.423L488.651 104.029L486.253 101.897L486.938 103.701L486.253 105.669H483.942V106.981L483.171 109.687L482.229 110.753L482.315 114.361L483.856 115.345L483.599 117.641L485.14 119.937V122.397L485.611 125.635L487.024 126.988V128.464L488.223 129.612L489.336 129.448L490.32 128.587L491.048 127.89H492.333L492.247 129.448L490.877 129.858V132.072L488.308 132.482L488.907 135.351L488.651 136.581L487.024 137.236V138.958L486.425 140.516C486.425 140.516 484.412 140.968 484.798 140.599C485.183 140.23 484.027 139.861 484.027 139.861V138.795L484.37 137.728L485.782 137.277L485.14 136.662L483.599 137.236L481.972 137.482V138.22L479.575 139.287L478.376 140.68L477.006 141.008L475.893 142.075L475.465 143.304L475.892 144.863L476.835 145.764L475.722 146.912L473.924 146.256L474.48 148.019L473.153 149.29L471.954 150.356H470.927L469.899 151.258L470.584 152.324L471.098 152.816L469.642 153.717H467.673L465.746 155.562L464.505 156.751L463.135 158.965L461.679 160.359L460.224 163.147L459.967 165.853L461.337 168.477L460.053 169.707L459.625 172.33L460.395 174.216L461.594 175.364L460.566 177.003V179.217V182.169L460.053 184.219V187.007L460.909 187.909V189.877V192.091L460.138 194.879V197.175L458.854 199.225V201.274L458.169 203.078L458.939 204.739H460.245L461.251 203.775H462.664L463.777 202.709L465.019 201.52L465.875 202.34L466.902 202.832V203.898L467.716 205.333L468.744 206.317L469.643 205.456V204.144L468.444 203.652V202.423L469.386 201.439V202.258L470.413 202.996L470.927 202.832L471.441 203.324V204.8V205.866L473.153 205.211V204.391L474.095 203.161L474.694 202.669L475.636 203.325L475.85 201.972L475.037 201.193L474.266 199.799L473.324 198.159L474.865 197.34L475.808 196.437L477.691 196.027H479.917L481.758 196.233L482.571 197.011C482.571 197.011 484.541 196.683 484.969 196.683C485.397 196.683 486.596 196.191 486.596 196.191L487.666 197.216L486.852 197.995L486.253 198.569L485.74 199.471H487.195H488.736L489.079 200.537L490.363 201.767L491.948 201.562L492.761 202.341L493.617 203.899L493.874 207.015L494.987 210.295L496.742 212.713L498.925 214.804L499.782 215.625L500.21 217.018L501.923 218.658L503.121 220.626L503.55 221.774L505.133 224.111L506.46 225.381V228.825L505.947 231.777L506.889 234.729L506.803 237.762L507.745 240.14L508.43 242.765L508.943 245.142L509.457 248.34V251.456L508.943 253.096V256.294V260.23L508.43 263.181L508.943 266.215L508.772 270.151V272.037L507.06 274.743L505.947 277.038L504.662 279.335H503.549L501.409 280.154L499.611 281.138L498.369 280.646V279.539L497.727 278.924L497.084 280.318V281.835L496.357 281.138L495.244 280.072V280.892L494.901 282.941L495.244 284.336L494.773 285.935L494.045 286.631V287.452V288.763L492.418 288.682L491.733 288.025L492.333 286.139L493.36 284.171V282.532L492.461 280.605L490.62 278.842L489.678 277.94L488.907 276.054L487.281 274.496L485.74 274.004L485.697 272.405L486.767 271.38L487.709 270.479V268.839L488.907 267.69L490.278 267.035L491.691 267.486L492.932 266.297L493.703 264.821L492.333 262.771L493.017 261.049L492.161 259.245L491.99 257.359L490.791 255.801L491.134 254.49L490.192 252.931L489.764 251.128L488.052 249.406L489.336 248.176V246.371L488.266 245.347L487.024 244.157L486.681 243.092H485.226L483.171 244.157L482.657 245.798L481.287 247.93L479.746 249.815L480.431 251.866L478.633 253.259L476.835 254.243L475.294 254.735L474.865 256.211H473.239L471.612 255.309L470.413 254.899V253.013L469.043 251.866L467.93 250.799L466.089 250.348L465.104 251.291L463.135 250.799L461.508 250.39L459.025 250.717H456.713L455.772 251.62L453.203 252.521L450.634 252.029L449.564 250.021L448.322 248.831C448.322 248.831 446.867 248.012 446.867 247.683C446.867 247.354 445.24 246.125 445.24 246.125L443.185 245.798L442.329 243.83L440.359 242.354L438.989 241.042L437.105 240.55L436.421 238.828L434.708 238.09L433.68 237.106L430.256 236.778H428.458L426.403 237.844L423.834 237.434L421.864 238.09H419.724L416.812 240.14L415.443 241.452L412.745 242.969L411.418 244.24L410.477 246.946L409.791 248.585L410.734 249.733L412.061 248.708L413.131 249.733L414.33 250.882L415.015 253.505L414.33 254.899L413.816 258.425V260.638L412.874 262.935L414.158 265.312L414.929 266.05V268.347L413.131 268.839L411.975 271.421L410.305 273.02L407.48 274.004L404.312 273.758L402 273.348L400.288 274.332L397.89 275.644L396.092 274.742L394.465 274.168L392.325 275.07L390.527 276.792L389.242 278.022L388.514 280.44L387.016 281.876L385.047 283.187L382.307 284.417L380.209 286.427L379.139 287.451H376.399L373.915 288.189H370.405L367.836 288.517L365.525 287.779L364.839 286.55L363.641 285.401H360.387L357.39 284.991L356.191 284.253L352.253 284.786H349.812L347.8 286.713L345.574 287.205L343.434 287.779L340.351 287.533L338.254 286.673L336.927 285.401L335.685 282.9L334.101 281.384L331.875 280.564H329.734L327.294 281.178L325.624 279.58H322.285L320.315 278.186L319.331 279.129L318.004 280.4L316.933 282.491L315.778 283.598L315.435 285.73L316.506 286.96V288.804L318.004 290.239V292.207L315.992 293.478L314.065 295.323H312.438H309.955L307.644 294.749L305.246 295.159L303.534 294.667L301.05 293.846L299.681 292.535L298.054 290.977L296.084 290.404L293.773 291.305L292.317 289.911L290.476 289.132L288.977 290.567H287.094L286.494 292.289H284.268L281.443 294.011L279.73 295.651H278.018L277.675 297.373L275.663 297.824L274.25 299.176L271.682 299.095L269.541 300.242L268.428 301.309L265.945 300.898L265.174 299.668L264.232 298.028L263.761 296.348L262.434 297.619L260.208 298.439L258.153 297.782L255.842 297.209V295.241L254.043 294.175L253.359 292.699L251.903 291.797L251.561 289.829L250.362 288.763L248.757 288.087L247.708 287.083H245.524L244.454 288.107L242.313 288.436L241.456 287.615L239.573 287.943L238.545 286.959L237.604 286.058V284.828L236.662 283.762L235.291 284.171L234.35 286.058L232.466 286.385L231.353 284.254L230.753 282.368L230.325 280.236L228.87 277.776V275.808L227.5 274.578V271.872L226.472 268.593L225.017 267.198L224.075 266.297L223.09 264.288L222.02 263.263L220.565 262.689V261.213H221.763L222.791 259.901L222.363 258.753H220.821L219.537 259.983L217.739 260.065L216.412 260.106L214.999 261.459L212.602 262.115L210.547 263.181L209.604 261.869L207.806 262.689H206.351L206.865 260.475L208.92 259.573V258.426H207.207L205.666 257.523L204.724 258.426L203.012 257.934L203.569 256.006L202.327 254.817L200.615 255.801L198.731 255.309L198.26 253.875L199.33 252.85V251.292L199.758 250.144L199.073 248.094L197.789 247.52H196.248L195.477 246.044H193.336L191.624 245.06L189.74 244.895L188.713 246.29H186.572L184.688 246.782L183.147 245.962L181.263 246.29H178.951L176.725 245.183H175.826L174.841 246.125L173.129 246.454L171.502 245.633H170.046L168.077 245.06L165.166 245.141L163.025 244.732L161.484 245.141L160.114 243.994L158.145 243.01H156.347L155.747 244.814L156.347 246.044L155.148 247.192L156.09 247.766L157.031 248.668L158.187 249.775L157.117 250.799H155.919L154.463 249.406L152.237 249.487L150.782 250.061L151.381 252.112L150.782 253.588L149.326 253.997L147.614 253.588L146.929 255.309L147.486 256.498L148.684 257.646L149.497 258.425L149.84 259.819L151.039 260.967L149.84 262.525L148.727 263.59H146.843L144.916 263.713L143.932 262.771L143.247 261.438H142.369L141.449 262.32H139.95L138.28 260.721L137.959 259.799L136.697 258.589V256.498L135.626 255.473H133.657L132.03 256.047L131.43 254.817L129.803 253.588L128.348 252.85L126.379 253.752L124.58 253.998L123.125 253.588L122.098 251.701L120.642 250.471L119.615 252.112H118.501V250.8L119.529 249.816L118.844 248.422L117.988 246.29L117.645 244.076L116.361 242.6L114.306 241.862L113.707 240.469L112.593 239.402L110.538 239.731H109.34V238.172L108.74 236.533L106.643 236.163L105.573 237.188L103.603 237.844L101.891 236.942H100.093L99.2366 238.172H97.4386H95.4694L95.0404 239.074L93.9271 240.14L93.7561 241.698L91.6585 241.33L90.4168 240.14V238.5L90.9736 236.901L90.0746 236.04H88.6187L88.0191 237.352L86.9059 238.131H85.2362L83.9092 239.402L82.7959 240.468V241.944L81.3405 242.518L79.7993 242.436L78.686 243.502L77.3159 244.403L77.8723 246.002L79.114 247.192L78.6002 249.323L77.487 250.39L78.6002 251.045L80.2272 252.521L81.2547 253.505L80.8268 255.637L81.2979 258.425V260.68L80.3988 261.541L79.5424 260.638L78.2581 260.475L78.4291 261.951L79.1571 263.386L80.2272 264.411L79.3708 265.23L77.9154 265.395H76.7169H75.7752H75.0046C75.0046 265.395 73.9771 265.518 73.1638 265.518C72.3506 265.518 72.5217 264.903 72.5217 264.903L71.2373 264.574L70.6383 264.001L69.0971 263.755V264.903L67.8985 265.395L66.4431 267.034H64.8161L63.018 267.526L61.9689 267.26L61.0915 268.101V269.454L61.9905 270.315L62.5042 271.872L62.0763 273.43L61.691 274.865L60.7061 275.808V276.382L59.8497 277.119L57.9659 280.071V282.368L58.4796 285.155L58.1369 287.288L58.308 289.911L56.2531 290.813L54.8829 290.239L52.9137 290.895L51.0299 290.485L50.773 288.927L49.8313 286.221L49.6602 284.253L48.2901 283.352V282.285L47.6053 280.563L46.4067 279.087L47.1773 277.857L47.6911 276.464L46.4067 275.152L45.9788 273.676L44.5233 273.512L44.2238 272.651L43.1527 271.626L41.2688 271.38L40.0702 270.232L39.7276 267.609L38.529 266.542L38.8717 264.903L37.4163 263.755L36.6456 261.869L35.3613 261.295L33.4774 260.065L32.8779 258.097L31.5935 256.212L31.1656 254.571L30.2239 254.407L29.5391 253.588L28.6827 252.439L27.5694 252.604L26.8846 250.636L27.1415 246.864L26.7988 244.076L26.114 242.682L25.2576 241.453L25.4286 238.993L24.4012 238.09L23.7164 236.779L24.2301 235.303L23.8021 233.663L24.7438 232.76L25.7713 232.597L27.1415 234.236L28.4258 234.647L29.0253 233.417L30.4808 232.843L32.4499 232.76H33.4774L34.7618 233.171L35.0186 231.121L34.3338 229.891L34.6765 228.825L35.704 228.989L36.6456 229.645L37.6731 230.547L38.4437 229.809L39.6423 230.301L41.6115 230.547L43.0669 231.121L43.4095 229.645L42.3821 228.907L40.9266 228.579L39.985 227.677L38.9575 227.349L40.2418 226.037L42.1252 225.218L43.7522 225.873L45.2076 225.299L46.5778 226.693L48.6327 228.825L50.5166 227.021L51.801 226.283L51.4583 224.479L52.6569 223.331L53.8554 223.496L53.7696 222.183L56.9379 221.774L57.5374 220.38L58.2222 219.56L56.7668 218.904V217.182L55.3966 215.706L54.8829 213.82L53.5986 213.082L52.2284 211.606L52.7422 209.884L52.2284 207.342L50.6019 206.195L48.718 204.801L48.1185 202.915L46.8341 201.931L46.4062 200.783L47.5195 199.553L48.3759 197.749V196.027L47.4342 194.387L46.4925 192.993L47.3489 192.338L47.8626 191.108H48.8901L49.6607 190.452L50.2603 188.238L50.4313 186.926L49.746 185.286L48.8038 184.384L47.5195 184.22L46.5778 183.236L45.8072 182.17L44.6513 183.113L43.7522 182.252L42.9816 181.022L43.7522 179.71L45.3792 178.152L46.4925 176.922L46.9204 175.446L48.2048 175.364L49.1465 176.348L49.6602 177.578L51.3725 178.152L52.9995 177.66L53.4275 176.02L53.9412 174.216L52.6569 172.987L53.5133 172.412L53.4275 171.019L53.9412 169.051L54.8829 166.919L55.5677 165.115L57.28 164.623L57.8796 163.393L59.5066 162.081V159.293L58.0511 157.981L56.4241 157.572L56.9379 156.342L57.3658 155.03L56.1673 153.882L55.3966 152.242L55.6535 151.094L57.2805 149.536L58.2222 147.897L57.7943 146.421L59.1644 146.092L61.2194 144.863V143.141L62.0758 142.157L64.216 142.075L65.1577 141.008L65.2435 139.779L67.0416 139.123L68.497 137.237L70.4662 137.319L72.1785 136.335L74.4903 136.827L74.833 135.597L75.6036 134.859L77.059 135.515L78.2576 136.745L80.142 137.319L80.8268 138.795L81.5116 140.434L82.5391 139.45L82.368 137.073L80.8268 135.761V132.973L82.1969 132.645L82.6249 132.235L80.741 131.497L79.6277 130.267L98.8072 130.185L102.403 128.955V126.823L103.003 121.412H105.4L107.455 119.854V117.722L108.997 117.148V114.36L110.367 114.278L113.363 111.982L114.819 112.637L117.987 106.98L118.201 105.463L120.813 102.962H125.179L126.55 100.666V96.2386L129.289 94.9265L132.886 93.2047L135.368 94.1064H136.824L138.023 95.2542L139.493 94.2732L139.136 95.9922L140.591 95.8283L142.646 95.9105V97.2226L143.074 98.6985L142.132 98.1244L141.148 97.1813L140.249 98.0422L140.676 99.6003V101.158L142.132 101.896L143.245 102.962V104.684L144.487 105.258V107.185L145.9 108.538L146.584 110.834V113.212L146.157 115.262L146.67 116.41L146.713 118.911L148.211 120.346L148.126 122.15L147.783 125.102L146.284 127.602L144.015 129.775H141.618L138.963 130.267L136.651 129.447L134.125 128.094L132.543 126.577V124.363L130.916 122.805L130.146 121.083L129.546 119.443L128.434 117.64L127.834 114.606L126.635 114.114L127.021 112.269L128.006 111.326L126.807 110.178L126.251 111.613L125.437 112.392L125.78 114.196L125.823 116.287L124.881 117.189L126.123 118.378L125.78 120.182L124.581 122.724L122.484 123.339L120.814 124.938L120.172 127.849L118.588 129.365L119.102 131.087L119.873 133.219L118.631 135.31L120.386 136.991L122.269 138.795L124.409 137.319L124.837 135.269L123.724 134.203L123.895 132.399V131.005L125.351 129.529H126.806L127.32 133.219L127.791 135.638L129.289 137.073L130.231 138.959L132.671 139.656L133.399 138.959L132.8 137.565L134.255 136.417L134.341 133.548L136.996 133.958L139.478 133.056L141.533 134.122L143.845 133.425H145.429L146.414 134.367L147.87 136.499L146.671 137.646V139.45L147.741 138.18L149.24 136.745L151.295 136.335L153.007 133.957V131.907L153.692 130.513L155.918 129.447V128.135L158.059 126.905V124.855L157.716 122.887H159.172L159.643 123.912L161.569 125.757L163.025 127.889V130.758L162.511 132.234L161.74 132.972L160.456 131.742L158.658 131.332L155.918 132.234V134.366L156.603 136.334V137.973L158.572 138.465L160.456 139.286L162.597 138.302V136.826L164.823 136.334L166.964 137.318L166.621 136.006L169.96 136.58L171.758 136.252L175.012 136.661H176.896L177.837 138.301H178.694V136.825L181.434 136.005H182.89L183.49 138.137H181.862L181.349 139.613L180.064 140.023L182.034 141.744H183.404L185.972 140.678L188.413 141.129L191.067 143.671L191.966 142.811H193.764L196.033 142.113L196.933 142.974L196.676 144.122L195.306 145.024V146.418L196.933 147.73L197.061 146.213L197.789 145.516L199.501 145.926V144.614L201.128 144.368L201.471 142.4L201.214 140.022L202.755 139.284L204.082 138.915L205.666 140.432L206.351 139.776L208.106 141.867L210.119 143.794L211.746 145.352L212.816 147.443L214.828 149.37L216.198 151.42L217.654 153.306V154.945L218.852 156.751L220.564 155.768V154.046L222.533 152.324L221.163 151.914L220.221 149.782L220.564 147.486L218.937 146.42L218.038 144.657L218.851 143.879L220.564 143.058V141.746L220.992 139.779L221.762 138.795V137.565L220.649 137.236L221.248 135.597L222.19 134.449L223.902 133.875L225.743 133.014L226.385 132.399L227.841 131.005L228.954 128.628L229.81 126.66L230.752 124.692L232.379 123.872L233.407 125.265H235.462L236.489 126.249H238.287L239.058 129.037L238.201 129.857L237.816 132.85L235.376 135.187L234.691 137.319L236.146 138.549L235.633 141.337L235.205 143.55L233.492 146.01L232.893 149.536L231.951 152.652L231.266 154.21L231.908 156.383L233.407 157.818L233.15 159.13L231.266 160.524L230.924 163.558L229.04 164.05L226.814 166.182L225.529 167.986L224.331 168.641L222.19 168.232L220.906 169.052L219.493 168.191L218.594 167.33L217.31 166.92V168.478L218.594 170.364L219.878 170.938L221.591 172.086L223.046 172.004L224.073 173.397H225.615C225.615 173.397 226.257 172.29 225.914 171.962C225.571 171.634 226.813 171.101 226.813 171.101H227.926L228.44 170.609L230.581 170.035L232.293 169.133V167.412L233.064 166.674L234.391 165.403L235.461 164.378L235.975 162.41L235.547 160.688L235.376 159.13L236.532 158.023L237.688 156.916H239.486L241.455 156.67L242.011 158.269L242.824 159.048L243.852 161.59L242.484 162.901L242.57 164.869V166.099L244.282 167.739L246.251 168.148V167.001L244.325 166.468L243.597 165.771V164.787L243.425 163.311L244.796 162.901L245.309 161.835L244.796 160.277L245.395 158.965L244.539 157.325L243.425 156.341L242.741 155.685L240.643 154.988L239.445 153.84L238.46 154.784L237.175 155.358L236.491 154.456H234.949L234.692 152.898L235.72 151.914L235.463 149.29L236.662 147.486L237.432 145.355L239.145 143.715L238.545 141.911L238.031 140.353L238.245 138.672L237.004 137.483L238.374 136.171L240.515 134.121H242.313L243.34 132.563L244.025 130.841L243.425 129.447L244.025 128.217H245.395L244.967 129.939V132.317L244.625 134.449L243.083 135.924V137.974V139.45L244.881 140.762L245.909 141.583L247.236 140.804L248.563 142.075L250.018 143.387V142.403L249.462 141.132L248.477 140.189L246.936 139.451V138.795L245.652 137.565L245.053 135.761L246.851 134.613L247.707 135.433L249.077 136.745L250.105 135.843L249.762 134.777L249.634 133.834L250.618 132.891L252.331 133.219L253.743 133.014L254.899 134.121L257.125 135.269L256.526 136.908L257.082 137.441L258.581 138.876H260.893L261.235 137.564L260.294 136.334L260.379 135.186L258.752 134.612L257.554 132.727L256.869 132.071L257.382 130.103L258.153 128.463L257.468 127.807L257.04 125.757L258.752 124.281H262.777L264.832 125.019V124.527H268.171L270.397 123.626H272.023L272.88 122.806L272.023 121.576L270.996 121.247L270.139 120.427C270.139 120.427 270.482 120.099 271.124 119.484C271.766 118.869 271.766 120.099 271.766 120.099L272.794 119.853L272.109 119.115L272.58 118.09L271.852 117.393L272.709 116.246L273.907 115.344L272.709 115.262L272.623 114.032L275.021 114.114L275.962 112.228L278.317 111.367L279.216 110.506L282.427 110.055L283.24 109.276L285.552 108.621L286.065 108.046L284.524 107.554L285.381 106.734L287.607 106.242L289.49 105.996L289.918 105.095L291.46 104.849L290.646 106.325V107.514L291.717 106.489L294.372 106.571L294.628 105.258L296.341 104.93L298.053 105.258L297.282 104.274L296.255 103.537L295.741 102.635H297.625L299.594 102.061H300.194L300.023 100.667L299.337 100.175V98.207L299.766 96.8949L301.05 93.8609L302.591 92.7948L303.961 91.4011L305.674 92.385L306.958 92.2212L307.343 93.9023L306.016 95.173L304.903 96.5668L307.621 96.7104L308.157 96.1978H309.826L311.068 97.3869L309.955 98.453C309.955 98.453 309.869 99.5191 310.383 99.5191C310.896 99.5191 312.267 100.093 312.267 100.093L312.695 98.6995L311.924 97.9615L313.808 96.9776H315.52L317.276 95.7885L318.26 96.7316L319.587 96.1166L320.572 97.0597L321.428 98.6995L322.456 99.5196L323.055 98.8638L323.954 99.7247L325.11 100.832L324.939 102.554L323.226 102.225L323.912 102.881L325.624 103.783L326.694 105.546L325.71 106.488V108.128L324.853 109.276L324.04 110.875L323.055 111.818L321.343 113.786V114.606L320.829 116.902L319.545 118.132L319.031 120.674L316.976 121.166L316.334 123.011L314.921 124.364L314.578 126.495L314.151 127.971L315.692 127.315L315.349 125.676L316.89 124.774C316.89 124.774 318.26 124.364 319.031 124.364C319.802 124.364 320.059 122.888 320.059 122.888L321.514 121.74L322.884 121.248L323.697 119.732L323.055 119.117L322.028 119.035L322.114 118.378L322.028 117.066L323.312 116.984H324.34L325.795 117.312L327.508 117.967L327.85 116.984L328.921 115.548L329.82 116.409V118.049L330.847 119.443H332.046L330.847 118.378L331.66 117.599L333.244 116.082L335.385 115.016L338.638 114.442L341.207 113.704L341.85 114.647L341.25 115.221L342.663 116.574H345.317L345.403 115.918L345.66 115.017L346.687 116.575L348.485 115.919L350.283 114.443C350.283 114.443 352.167 114.115 352.595 114.115C353.023 114.115 352.595 112.639 352.595 112.639L352.338 110.999L351.054 109.114L351.397 107.228L351.654 106.244L352.681 107.228L353.751 106.449L354.65 107.31L356.02 108.212L356.363 107.228L357.048 107.062L357.733 107.8L358.417 107.308C358.417 107.308 358.332 105.792 358.974 105.792C359.617 105.792 359.788 105.013 359.788 105.013L361.671 106.407L362.271 105.833L364.325 106.488L363.641 108.497H364.625L365.61 109.44V110.998L367.237 110.014L368.093 110.834V112.638L366.98 112.967L366.295 113.622L367.494 114.77C367.494 114.77 368.435 114.36 368.435 113.95C368.435 113.539 369.206 114.688 369.206 114.688V116L370.961 115.958L372.631 117.557L373.915 118.377L375.714 118.705L376.484 117.967L378.453 118.951L378.625 117.394L377.769 114.688L377.255 113.458V112.31L376.141 111.244V109.768L378.282 110.014L379.481 111.162L381.365 110.67H383.505L383.077 108.538L384.276 106.407L386.502 105.915L388.129 105.833L390.012 106.325V105.095L388.001 104.234L388.728 103.537L389.67 102.553L391.297 102.635L392.581 101.405L391.982 101.077L390.698 99.8467L389.242 99.1088V97.3047L388.643 96.8128L387.786 98.9445L386.759 98.2887V96.5668L388.643 94.927L388.386 93.7793L386.588 92.7132L387.701 91.6471H389.328L391.725 90.4993L392.41 88.6136L395.578 87.4658L398.061 86.3997C398.061 86.3997 398.404 86.7279 398.404 87.2198C398.404 87.7118 396.777 88.2859 396.777 88.2859L396.177 90.4998L397.633 89.8435L398.918 88.6136L400.544 89.1056L400.116 92.3034L401.572 90.9913V89.4332L401.058 86.8095L401.401 85.6618L402.171 83.6117L403.969 82.7916L406.538 81.7255L408.079 82.7916C408.079 82.7916 407.351 83.7347 406.795 84.2675C406.238 84.8003 407.394 85.1698 407.394 85.1698H409.278L410.477 83.8577C410.477 83.8577 411.846 85.2514 412.103 85.4974C412.36 85.7434 411.846 83.6117 411.846 83.6117L414.158 82.3818L415.785 83.2019L417.583 83.1202L419.21 81.5622L420.923 79.5121V77.1344L423.063 74.1004L424.861 72.3786L426.488 70.4928L429.314 70.083L431.669 69.96L432.824 71.067L435.222 73.363L437.362 72.4612L438.904 71.2721H440.573L439.76 70.4928V69.3446L441.386 67.787V65.0812L442.157 63.6874H443.441L444.555 62.6213V60.9816L446.695 59.5057L447.209 57.5378L446.353 56.7177L446.695 55.7337L445.497 54.094L446.439 52.4538L447.338 51.5928L448.965 53.1509L447.723 54.34L449.007 55.5699H450.976L452.347 55.0779L454.23 54.2578L455.943 53.848L456.371 52.5359L455.857 51.2238L454.915 51.06L452.004 49.8301L449.864 50.1582L449.35 49.0104H447.637V48.1087L448.066 46.5506L449.607 45.8126L449.778 44.0907L451.148 43.3528H452.347L451.833 41.959L452.347 40.4831L453.802 38.4326Z" fill="#B3B3B3" stroke="black"/>
<circle cx="72" cy="236" r="4" fill="#D9F915"/>
<circle cx="166" cy="232" r="4" fill="#D9F915"/>
<circle cx="150" cy="212" r="4" fill="#D9F915"/>
<path d="M467.228 195.906L465.82 196.19L465.08 196.97V197.963V199.027L466.339 198.531L467.006 199.169L467.747 198.46L468.043 197.04L467.228 195.906Z" fill="#B3B3B3" stroke="black"/>
<path d="M486.415 188.883L485.822 189.025L485.379 187.819V186.754L487.305 187.251L488.267 187.676L488.786 188.812L489.823 189.805L491.676 190.16L492.12 191.295L494.194 192.572H495.305L496.194 193.778L496.935 195.694L498.083 196.793L500.268 198.957L501.675 199.311L503.602 200.021L505.454 201.582L507.973 202.929L509.602 204.277L511.751 205.342L513.603 206.406L514.789 207.328L516.863 208.108L516.567 209.031L515.826 209.74L514.419 210.165H513.308L513.604 211.655L513.308 212.719V213.57L514.567 215.415C514.567 215.415 515.753 216.691 515.53 216.904C515.307 217.117 515.604 219.104 515.604 219.104L516.568 220.026L518.049 221.446L519.309 222.226H521.235L522.346 223.29H523.605L524.272 224.638L525.902 224.709L526.902 223.751L528.643 224.709L529.68 225.986C529.68 225.986 530.051 226.837 529.68 226.837C529.31 226.837 527.31 225.915 527.31 225.915L526.458 226.73H524.569L523.976 228.185L524.347 229.604L525.532 230.739L526.421 232.583L525.236 233.506L524.272 232.371L523.013 231.164L520.791 229.178V227.83L519.309 226.412L517.902 225.064L516.939 223.858L515.753 221.658L514.271 220.31L512.716 219.459L511.234 219.034L509.974 216.48L507.233 212.862L505.011 210.733L503.159 208.96L501.529 206.832L500.491 205.2L497.677 203.994L495.454 203.072L494.12 202.93L492.342 200.589V199.525L490.416 197.68L489.379 195.836L487.305 195.197L487.824 193.778V192.714L489.527 193.211L489.823 191.792L488.824 190.834V190.302L487.842 189.361L486.415 188.883Z" fill="#B3B3B3" stroke="black"/>
<path d="M549.015 225.914L549.311 227.403L549.459 228.823L550.053 229.035V227.9L550.497 226.978V225.701L549.015 225.914Z" fill="#B3B3B3" stroke="black"/>
<path d="M555.09 226.836L554.127 226.766V227.403L555.09 227.9V226.836Z" fill="#B3B3B3" stroke="black"/>
<path d="M552.645 217.189L552.497 215.556L551.237 215.202L550.867 217.047L551.349 217.507L550.942 218.89L551.089 221.019L551.979 221.373L552.275 220.238L551.83 217.969L552.645 217.189Z" fill="#B3B3B3" stroke="black"/>
<path d="M553.831 212.364L553.312 211.654L552.941 212.009L553.238 213.215L553.831 212.364Z" fill="#B3B3B3" stroke="black"/>
<path d="M555.164 207.539L554.201 207.326L554.571 205.482L554.053 204.347L554.349 203.141L555.349 202.183L555.608 203.496L555.386 204.844L555.683 206.404L555.164 207.539Z" fill="#B3B3B3" stroke="black"/>
<path d="M514.345 101.975V99.9889L512.937 99.4212L512.048 99.9181V101.479L511.9 102.897L512.789 103.465L513.382 104.175L513.455 105.451L514.641 105.877L514.345 104.6L513.826 103.607L514.345 101.975Z" fill="#B3B3B3" stroke="black"/>
<path d="M542.126 108.786H543.904L545.015 107.722L543.607 107.296L542.199 107.864L540.866 107.367L539.829 107.722L540.348 108.786H542.126Z" fill="#B3B3B3" stroke="black"/>
<path d="M545.646 162.384L546.127 163.341L545.979 164.618L545.904 166.25L546.682 166.994L547.535 166.533V164.831L548.312 164.086L547.682 162.632L546.646 161.638L546.719 160.362L545.979 159.652L545.535 160.929L544.831 161.603L545.646 162.384Z" fill="#B3B3B3" stroke="black"/>
<path d="M550.424 171.5L549.164 170.719V171.783L549.905 172.138L550.424 171.5Z" fill="#B3B3B3" stroke="black"/>
<path d="M555.165 191.506V193.067V194.343H556.202L555.906 193.138V192.357V191.435L555.165 191.506Z" fill="#B3B3B3" stroke="black"/>
<path d="M547.165 103.677L546.202 104.315L546.72 104.812L547.424 104.138L548.128 103.464L547.165 103.677Z" fill="#B3B3B3" stroke="black"/>
<path d="M450.056 25.2862L449.291 24.4995L450.424 22.9262L450.226 21.2176V19.1833L449.121 18.3425L448.441 18.0985L447.847 18.6948L446.544 19.3461L445.482 20.3631L445.581 22.1125L445.128 22.5469L445.354 23.9569L446.204 25.1504L447.082 27.1035L448.441 27.3746L449.362 26.493L450.056 25.2862Z" fill="#B3B3B3" stroke="black"/>
<path d="M24.4222 130.931L25.7549 131.218L26.8969 130.905L27.3321 130.098L28.3652 130.255L29.331 131.179L29.3716 132.442L30.1602 132.677L30.3236 133.666L31.5473 133.874L31.8191 132.937L31.1533 132.299L31.724 131.752L32.0913 132.104L33.2606 133.041V134.447L33.0972 135.671L33.7769 136.739L34.4571 137.181L34.7017 138.77L34.1037 139.968L31.2483 141.348L26.9242 136.426L24.4222 130.931Z" fill="#B3B3B3" stroke="black"/>
<path d="M14.1075 217.369L13.6411 216.978L13.0529 216.531L12.6197 216.228L12.2193 215.971L10.6305 215.933L9.70588 216.035L8.92452 215.603L8.15618 215.375L7.71341 215.109L7.03623 215.692L7.12739 216.504L7.79155 216.834L8.55989 217.062L9.00265 218.242L9.09381 219.155L8.85941 219.891L8.97661 220.906L8.65104 221.857L7.55714 222.377L6.98414 222.948L6.15069 223.037L5.5256 224.013L5.86419 225.206L6.17674 226.094L7.41389 226.88L8.76825 226.741L9.56263 226.348L10.7607 225.815L11.6332 226.043L12.7532 226.741L13.0851 227.334L13.3929 227.709L13.9645 228.207L15.2787 228.642L16.6349 228.662L18.1642 228.643L18.7888 229.878L19.1446 230.772L20.9408 231.884L22.689 232.201L23.3085 231.238L24.7724 231.454L23.3765 230.103L23.2195 229.558L22.9641 229.145L22.6944 228.869L21.1377 228.631L19.4261 227.732L18.2075 225.925L18.9671 224.847L19.3223 223.274L19.12 221.845L18.9044 221.648L18.417 221.3L18.3256 221.039L18.6969 219.484L17.8278 218.652L17.7953 217.363L16.7941 217.204L16.6283 217.847L15.8042 217.775L14.7294 217.945L14.1075 217.369Z" fill="#B3B3B3" stroke="black" stroke-linecap="round"/>
<circle cx="80.5" cy="196.5" r="6.5" fill="#D9F915"/>
<path d="M550.054 227.9L550.499 226.978V225.701L549.017 225.914L549.313 227.404L549.461 228.823L550.054 229.035V227.9Z" fill="#FECE2C" stroke="black"/>
<path d="M555.091 226.836L554.128 226.766V227.404L555.091 227.9V226.836Z" fill="#FECE2C" stroke="black"/>
<path d="M551.239 215.202L550.869 217.047L551.35 217.507L550.943 218.89L551.091 221.019L551.98 221.373L552.277 220.238L551.832 217.969L552.647 217.189L552.499 215.556L551.239 215.202Z" fill="#FECE2C" stroke="black"/>
<path d="M553.832 212.364L553.313 211.654L552.943 212.009L553.239 213.216L553.832 212.364Z" fill="#FECE2C" stroke="black"/>
<path d="M555.165 207.539L554.203 207.326L554.573 205.482L554.055 204.347L554.351 203.141L555.351 202.183L555.61 203.496L555.387 204.844L555.684 206.404L555.165 207.539Z" fill="#FECE2C" stroke="black"/>
<path d="M555.907 193.138V192.357V191.435L555.167 191.505V193.067V194.344H556.204L555.907 193.138Z" fill="#FECE2C" stroke="black"/>
</svg>
