<svg width="80" height="113" viewBox="0 0 131 153" fill="none" xmlns="http://www.w3.org/2000/svg">
<path d="M109.651 48.0265V102.473C100.153 114.158 80.0572 134.059 64.5738 133.146C49.1663 132.237 30.5349 113.427 21.7697 102.502V47.5558L67.0789 24.4283L109.651 48.0265Z" fill="white"/>
<path d="M124.803 109.458V35.3398M6.61782 109.458V35.3398M3 40.2913L72.6988 4.71436M61.8903 4.78788L128 41.4336M5.10263 106.494C15.709 119.804 42.3763 146.733 64.195 147.961C86.0138 149.19 114.701 120.828 126.318 106.494M109.651 103.529V102.473M109.651 102.473V48.0265M109.651 102.473C100.153 114.158 80.0572 134.059 64.5738 133.146C49.1663 132.237 30.5349 113.427 21.7697 102.502M109.651 102.473C110.191 101.808 110.697 101.17 111.166 100.564M109.651 48.0265V47.1988M109.651 48.0265L67.0789 24.4283M109.651 48.0265L113.723 50.2841M21.7697 103.529V102.502M21.7697 102.502V47.5558M21.7697 102.502C21.2256 101.823 20.7195 101.175 20.2545 100.564M21.7697 47.5558V47.1988M21.7697 47.5558L18.1519 49.4025M21.7697 47.5558L67.0789 24.4283M67.0789 24.4283L70.851 22.5029M67.0789 24.4283L63.738 22.5764" stroke="white" stroke-width="10"/>
</svg>
