<svg width="79" height="69" viewBox="0 0 79 69" fill="none" xmlns="http://www.w3.org/2000/svg">
<path d="M0 42.8892C0 39.7878 0.669848 37.362 3.60728 37.2071C2.30146 37.08 1.45738 35.0113 1.61377 32.0239C1.76768 29.0376 2.9637 26.4368 5.94027 26.5925L18.0061 26.58C17.9747 26.2285 12.9163 16.9224 7.28909 8.04443C5.84056 5.43028 6.7791 2.13451 9.38492 0.681902C11.9905 -0.769458 15.2747 0.171755 16.7231 2.7859C16.7231 2.7859 20.3052 8.04942 23.7156 10.7009C33.2431 18.1059 54.0948 27.9116 55.1417 32.3738H71.9381C75.7375 32.3738 78.8234 36.0562 78.9497 39.8648C78.9787 40.1191 79 57.3077 79 57.3077C79 61.4808 75.6288 64.0007 71.4686 64.0007H55.0032C54.9159 65.9404 52.1126 69.2223 45.453 68.9881L10.3248 68.9981C7.12992 68.9981 5.58695 68.0088 5.26503 65.3542C4.93605 62.6348 5.06465 60.576 7.31923 60.3772L5.42544 60.3955C2.2308 60.3955 1.4925 57.798 1.4925 54.5916C1.4925 51.4387 2.21282 48.9582 4.63818 48.8H3.90376C0.707876 48.8002 0 46.0943 0 42.8892Z" fill="white"/>
</svg>
