<svg width="80" height="80" viewBox="0 0 165 185" fill="none" xmlns="http://www.w3.org/2000/svg"><path d="M35.467 134H27v-32.637l-10.107 3.135v-6.885l17.666-6.328h.908V134zm33.691-17.051c-2.207 2.168-4.785 3.252-7.734 3.252-3.77 0-6.787-1.289-9.053-3.867-2.266-2.598-3.398-6.094-3.398-10.488 0-2.793.605-5.352 1.816-7.676 1.23-2.344 2.94-4.16 5.127-5.45 2.188-1.308 4.649-1.962 7.383-1.962 2.812 0 5.312.703 7.5 2.11 2.187 1.405 3.886 3.427 5.097 6.064 1.211 2.636 1.827 5.654 1.846 9.052v3.135c0 7.11-1.767 12.695-5.303 16.758-3.535 4.062-8.544 6.23-15.029 6.504l-2.08.029v-7.06l1.875-.03c7.363-.332 11.348-3.789 11.953-10.371zm-5.654-3.222c1.367 0 2.539-.352 3.515-1.055.997-.703 1.749-1.553 2.256-2.549v-3.486c0-2.871-.547-5.098-1.64-6.68-1.094-1.582-2.559-2.373-4.395-2.373-1.699 0-3.096.781-4.19 2.344-1.093 1.543-1.64 3.486-1.64 5.83 0 2.324.528 4.238 1.582 5.742 1.074 1.484 2.578 2.227 4.512 2.227zm40.107 3.222c-2.207 2.168-4.785 3.252-7.734 3.252-3.77 0-6.787-1.289-9.053-3.867-2.265-2.598-3.398-6.094-3.398-10.488 0-2.793.605-5.352 1.816-7.676 1.23-2.344 2.94-4.16 5.127-5.45 2.188-1.308 4.649-1.962 7.383-1.962 2.812 0 5.312.703 7.5 2.11 2.187 1.405 3.887 3.427 5.098 6.064 1.211 2.636 1.826 5.654 1.845 9.052v3.135c0 7.11-1.767 12.695-5.302 16.758-3.536 4.062-8.545 6.23-15.03 6.504l-2.08.029v-7.06l1.875-.03c7.364-.332 11.348-3.789 11.953-10.371zm-5.654-3.222c1.367 0 2.539-.352 3.516-1.055.996-.703 1.748-1.553 2.256-2.549v-3.486c0-2.871-.547-5.098-1.641-6.68-1.094-1.582-2.559-2.373-4.395-2.373-1.699 0-3.095.781-4.19 2.344-1.093 1.543-1.64 3.486-1.64 5.83 0 2.324.528 4.238 1.582 5.742 1.075 1.484 2.578 2.227 4.512 2.227zm45.352 4.218h4.834v6.826h-4.834V134h-8.467v-9.229h-17.49l-.381-5.332 17.783-28.095h8.555v26.601zm-17.901 0h9.434v-15.058l-.557.967-8.877 14.091z" fill="#fff"/></svg>