<svg width="80" height="100" viewBox="0 0 102 134" fill="none" xmlns="http://www.w3.org/2000/svg"><path d="M63.728 105.017c4.679 1.95 14.855 7.489 18.13 14.041m-.585-.585c0-6.241 1.52-20.711 7.603-28.668M2.105 21.98L2 111.905c-.013 11.048 8.929 20.014 19.972 20.027l57.904.068c11.043.013 20.006-8.933 20.019-19.981L100 22.095c.013-11.048-8.929-20.014-19.972-20.027L22.124 2C11.081 1.987 2.118 10.933 2.105 21.98zm13.667 90.057h25.732a2.34 2.34 0 000-4.681H15.772a2.34 2.34 0 000 4.681zm.585-90.102h64.332a2.925 2.925 0 000-5.85H16.357a2.925 2.925 0 000 5.85zm-.585 77.23h25.732a2.34 2.34 0 000-4.68H15.772a2.34 2.34 0 000 4.68zM36.826 54.7H84.78a2.34 2.34 0 000-4.68H36.826a2.34 2.34 0 000 4.68zm32.751-11.703h15.206a2.34 2.34 0 000-4.68H69.577a2.34 2.34 0 000 4.68zM15.772 43h42.107a2.34 2.34 0 000-4.681H15.772a2.34 2.34 0 000 4.68zm0 23.402h25.732a2.34 2.34 0 000-4.68H15.772a2.34 2.34 0 000 4.68zm35.09 0h33.92a2.34 2.34 0 000-4.68h-33.92a2.34 2.34 0 000 4.68zM15.772 54.7h10.526a2.34 2.34 0 000-4.68H15.772a2.34 2.34 0 000 4.68z" stroke="#fff" stroke-width="3"/></svg>