<svg version="1.0" xmlns="http://www.w3.org/2000/svg" width="1706.667" height="1538.667" viewBox="0 0 1280 1154"><g fill="#fff" stroke="#fff" stroke-width=".1"><path d="M790.5 1.4c-12.7 3.1-12.7 3-14 36.2-1.2 30.3-1 29.6-8.6 33.5-6 3-17.9 5.9-24.4 5.9-7.8 0-7.7.1-23-24.5-6.4-10.5-13.3-20.5-15.1-22.3-4.2-4-8.6-4.2-17.9-.7-8.2 3-12.1 5.7-14.1 9.7-1.9 3.6-1.7 4.4 5.2 34.3 4.8 20.6 5.2 24.9 2.8 28.3-2 2.9-11.9 9.6-19.7 13.3-6.6 3.1-10.9 3.6-14.3 1.6-1.2-.7-9.9-8.4-19.4-17.2C608.1 81.1 606.7 80 602 80c-6.5 0-18.7 8.7-22.1 15.8-2.7 5.4-2.8 5.1 11.6 32.4 8.1 15.2 11.5 22.8 11.5 25.1 0 9.3-21.8 29.5-29.3 27.1-1.2-.4-11.9-5.9-23.7-12.2-12.6-6.7-23.1-11.7-25.4-12-5.5-.7-9.8 1.9-15.7 9.7-6 8.1-7.5 12.7-5.6 17.3.8 1.8 9.4 11.8 19.1 22.3 9.7 10.4 17.9 20 18.3 21.3 1.7 6.9-10.9 29.7-18.2 32.8-3.2 1.3-5 1-29.5-4.5-27.5-6.3-29.8-6.4-34.2-2.4-2.8 2.5-6.4 9.9-8.4 17.1-1.6 5.7-1.6 6.2.2 9.8 1.6 3.3 4.9 5.8 23.9 17.6 12.1 7.5 22.8 14.7 23.8 15.9 2.4 3 2.2 10.6-.6 20.9-2.7 9.7-4.5 13.6-7.7 16.5-2 1.8-4.3 2.1-24.9 2.8-30.8 1.1-32.6 1.3-36.2 4.5-3.5 3.3-5.9 11.8-5.9 20.9 0 5.8.3 6.6 3.3 9.8 2.9 3.1 5.5 4.1 26.7 10.6 12.9 3.9 24.7 7.7 26.1 8.5 4.3 2.2 5.9 7.8 5.9 20.9 0 13.6-1.5 18.4-6.3 20.9-1.8.8-13.1 4.6-25.2 8.2-25.1 7.6-26.9 8.4-29 12.4-2.7 5.2-1.4 19.7 2.4 26.8 2.4 4.6 5.5 5.2 33.3 6.3 29.3 1.1 29.4 1.1 33.5 8.5 2.7 5 6.3 18.5 6.3 24 0 7.7-.8 8.5-19.2 20-26.4 16.5-28.8 18.2-30.4 22-1.8 4.4-.5 10.2 4.4 19.7 3.7 7.3 6.8 9.7 12.2 9.7 1.6 0 13.9-2.5 27.1-5.6 15.6-3.5 25.2-5.3 27-4.9 1.6.4 4.6 2.6 6.9 5.3 5.2 5.9 13 21.3 13 25.8 0 3.8-.3 4.2-20.5 25.9-7.2 7.7-14.1 15.3-15.3 16.9-3.3 4.3-2.9 10 .9 16.2 5.9 9.4 12 14.4 17.5 14.4 1.6 0 12.9-5.3 26.5-12.5 13-6.9 24.7-12.5 25.8-12.5 3.7 0 8.3 3 15.9 10.4 8.6 8.3 11.4 12.5 11.4 16.9 0 2.3-3.7 10.4-12.1 26.3-15 28.5-15.1 29-6.1 37.5 9.9 9.5 17.9 12.1 23.6 7.7 1.6-1.2 8.8-7.6 15.9-14.2 7.2-6.6 15.3-14.2 18.2-16.8 4.6-4.2 5.7-4.8 9.7-4.8 5.2 0 18 6.1 24.7 11.8 7.6 6.5 7.6 6.6 1.3 33.8-3 13.1-5.5 25.9-5.5 28.4-.1 3.9.4 4.9 3.8 8.1 4.9 4.6 14.2 8.3 21 8.3 7 .1 7.9-.9 24.2-27.1C735.7 780 736.7 779 744 779c4.1 0 17.7 3.7 23.6 6.4 8 3.7 8.2 4.5 9.2 34.6.6 16.6 1.3 26.4 2.2 28.1 2.4 5.2 10.2 7.9 22.5 8 7.1.1 10.5-1.4 12.6-5.3.6-1.2 4.5-13 8.6-26.2 4.5-14.8 8.1-24.9 9.4-26.2 2.8-3 9.1-4.4 19.4-4.4 10.3 0 16.6 1.4 19.3 4.3 1.2 1.3 4.9 11.7 9.3 25.7 8 26.1 8.8 28.3 12.5 30.6 3.4 2.3 19.5 1.5 25-1.2 7.4-3.7 7.5-4.1 8.6-33 1-30 1.3-31.1 8.5-34.7 5.5-2.8 20.1-6.7 24.9-6.7 6.6 0 7.9 1.5 21.6 23.4 16.3 26.2 17.1 27.1 24.2 27 4.2 0 7.1-.9 13.2-4 8.8-4.4 11.6-7.5 11.6-12.7 0-1.9-2.6-14.5-5.7-28-5.4-23.7-5.6-24.7-4.1-27.9 2-4.1 9.8-10 19.3-14.5 7.9-3.8 13-4.4 16.6-2 1.2.9 10.5 9.2 20.5 18.6 19.7 18.3 22 19.7 28.3 17 5-2 14.8-9.7 16.9-13.2 3.6-5.9 2.9-8.4-9.9-32.7-6.5-12.4-12.1-23.5-12.5-24.8-1.2-3.6 2.7-10.1 10.7-18.1 7.4-7.5 12.9-11.1 16.9-11.1 1.2 0 12.5 5.4 25.1 12.1 12.5 6.6 24.3 12.3 26.1 12.6 5.8.9 11.9-3.9 18.8-14.6 3.5-5.7 3.8-11.5.6-15.7-1.2-1.6-7.9-9-14.8-16.4-22.7-24.5-21.3-22.6-20.7-27.7 1.1-10.4 14.9-30.3 20.9-30.3 1.4 0 13.3 2.5 26.4 5.5 13.2 3 25.3 5.5 27.1 5.5 4.6 0 9.4-4.6 12.8-12.2 3.8-8.3 4.4-16.3 1.7-19.9-1.1-1.4-12-8.7-24.2-16.4-12.1-7.6-22.6-14.7-23.2-15.8-.6-1.3-.8-5-.5-9.6 1-12.1 6.1-25.6 10.7-28.1 1-.5 13.2-1.4 27.1-2 14-.6 26.6-1.3 28.1-1.6 4.6-.9 7.5-4.9 9.2-12.4 2.9-12.5 1.5-20.5-4.1-23.4-1.6-.8-13.4-4.7-26.3-8.6-12.8-3.9-24.1-7.7-25.1-8.3-3.9-2.4-5.3-7.5-5.3-19.7-.1-12.1 1.1-17.5 4.3-20.4 1.1-1 13.3-5.3 27.2-9.6 27.6-8.5 29.1-9.4 30.5-16.7.8-4.5-1-17.3-3.1-21.3-3.1-6.1-4.3-6.3-34.1-7.5-30.4-1.2-29.6-1-33.5-8.7-2.9-5.6-6.1-18.3-6.1-24.4-.1-4.4.4-6 2.3-8 1.2-1.3 11.5-8.1 22.7-15.1s21.5-14.1 22.9-15.7c2.1-2.6 2.5-3.8 2.1-8.2-.6-6.7-6.7-19.6-10.4-22.1-4.1-2.6-8.2-2.2-32.8 3.6-27.5 6.4-28.7 6.4-34 .8-5.5-5.7-13.6-21.6-13.6-26.7 0-4.2-.2-3.9 24.5-30.5 12.4-13.3 13.5-14.9 13.5-19.8 0-4.2-5.9-13.6-11.8-19-6.9-6.2-8.7-5.8-35.3 8.3-16.1 8.5-23.8 12-26.1 12-4.6 0-11-4.2-18.7-12.5-6.9-7.5-9.6-12.4-8.6-16.3.3-1.4 5.8-12.2 12.2-24.1 14-26.1 14.6-28.6 8.7-35.1-6.1-6.7-14.8-12-20-12-5 0-4.8-.1-25.4 19-19.8 18.4-20.6 19-24.4 19-4.2 0-19.6-7.6-25.2-12.4-7.4-6.3-7.4-6.2-1-34 6.4-27.9 6.7-31.1 3.1-35-6.2-6.7-23.6-11.7-28.9-8.3-1.3.9-8.4 11.2-15.7 22.9-7.3 11.7-14.3 22.3-15.6 23.5-3.1 3.2-11.4 3.1-22.9-.3-10.5-3-14.8-5.4-16.3-9.2-.6-1.5-1.5-14.4-2.1-28.6-1.2-30.1-1.4-30.9-9.4-33.9-2.6-.9-8.1-2-12-2.4-8.4-.7-13.2 1-15.8 5.5-.8 1.5-4.9 13.5-8.9 26.7-5.5 17.8-8 24.6-9.7 26.2-3 2.7-9 3.8-20.7 3.7-9.8-.1-15.3-1.4-17.9-4.3-1-1.1-5.1-12.8-9.1-26.1-4.1-13.3-8.2-25.4-9-26.7-3.3-5-12.3-6.5-23-3.9z"/><path d="M281.5 540.7c-5.1.6-10.6 3.5-12 6.3-.8 1.5-3 14.3-5 28.6-3.8 27.9-5.2 33.3-9.3 36.3-5.5 3.8-18.5 7-23.6 5.7-4.3-1.1-8.8-5.8-25.6-27-8.8-11.2-17.2-20.8-18.6-21.5-4.1-1.8-8.5-1.3-15.4 2-8.8 4.1-12.6 7.2-14 11.3-1 3.1-.3 6.5 6.1 31.4 5.2 20.5 7 28.9 6.5 31.4-.8 4.6-5.4 9.8-12.9 14.8-9.7 6.6-11 6.2-40.7-10.3-15.1-8.5-25.6-13.7-27.3-13.7-1.5 0-4 .6-5.5 1.4-3.6 1.8-12.5 11.3-14.7 15.6-3.4 6.5-2.2 8.9 15.9 33 16.6 22 18.6 25.2 18.6 29.3 0 7-7.5 20-13.3 23.2-4.1 2.2-9.6 1.9-41.7-1.9-19.4-2.3-20.7-2.3-24-.8-4.5 2.2-7.5 6.8-10.1 15.5-2.5 8.3-2 13 1.4 16.5 1.3 1.3 12.9 8.6 25.8 16.1 28.4 16.7 28.3 16.6 27.7 29.6-.6 10-2.8 16-7.3 18.9-1.4.9-14.4 5.1-28.8 9.2s-27.2 8.2-28.5 9c-4 2.7-5.5 7.9-4.9 17 .7 9.3 2.5 14.6 5.9 16.8 1.3.8 11.3 2.7 24.3 4.5 35.8 5.1 35.3 5 39 8.3 3.9 3.3 7.2 11.2 8.1 19.2 1.1 8.9-.1 10.3-25 30.1-12.3 9.7-22.8 18.7-23.5 20.1-1.6 3.7-1.4 7.7.9 13.5 2.8 7.1 7.5 13.6 11.2 15.5 3.7 1.9 3.9 1.9 32.8-5.6 29.1-7.6 29.7-7.7 34.8-5.1 4.5 2.3 11.6 10.5 13.9 16.1 2.8 6.4 1.5 10-13.1 36-8.4 15.2-13.6 25.6-13.6 27.3 0 4.1 2.2 7.6 8.2 13.3 6.5 6.2 10.5 8.4 15.2 8.4 3.1 0 6.9-2.5 26.8-17.5 15.2-11.4 24.4-17.7 26.5-18.1 4.7-.9 11.2 1.1 17.8 5.5 10.7 7 10.9 8.5 7 41.1-3.2 26.8-3.2 31 0 34.8 3.5 4.1 14.5 8.5 21.7 8.6 4.7.1 6.1-.3 8.2-2.3 1.5-1.4 8.3-12.2 15.3-24 7-11.9 13.7-23 15-24.7 3.5-4.7 7-5.8 16.8-5.2 9.2.6 14.7 2.7 17.7 6.8 1 1.4 5.2 14.4 9.4 29 4.1 14.6 8.2 27.6 9 28.8 2.6 4 7.9 5.5 16.9 4.9 9.2-.5 14.7-2.5 17-6 1.1-1.7 2.9-11.8 5.5-29.9 2.1-15 4.2-28.2 4.6-29.3 2.1-5.9 11-10.8 21.8-12.1 9-1.1 10.6.3 29.2 23.7 9.1 11.4 17.9 21.9 19.5 23.3 4.5 3.8 9.9 3.5 18.9-1.1 8.4-4.3 13-9.1 13-13.3 0-1.7-1.1-7.2-2.4-12.3-10.6-39.8-11.7-44.8-10.6-48.7 1.3-4.7 8-11.6 15.1-15.5 8.1-4.4 9.9-3.8 38 11.9 17.6 9.7 25.5 13.6 27.9 13.6 4.5 0 9.3-3.2 15-10.1 5.9-7.1 7.5-11.8 5.5-16.5-.7-1.8-8.6-12.8-17.4-24.4-9.2-12.1-16.6-22.8-17.2-25-.9-3-.8-4.7.5-8.6 2.2-6.6 7.4-14.3 11.5-17.1 4.4-3 6.8-2.9 38 .7 28.5 3.3 30.2 3.1 34.1-3.2 2.7-4.3 6-15.1 6-19.4 0-7.5.1-7.5-29-24.4-22.5-13.1-24.5-14.5-26.4-18.5-3.2-6.8-1-22.4 4-27.6 3.4-3.6 5.4-4.3 34.2-12.4 12.8-3.6 24.4-7.2 25.7-8.1 3.5-2.3 4.8-7.4 4.3-17.3-.4-9.7-2.5-14.7-7-16.9-1.5-.7-15.2-3-30.4-5.2-21.2-3-28.4-4.4-30.4-5.8-3.6-2.7-6.9-9.1-8.4-16.4-1.5-7.5-.7-13 2.5-16.4 1.3-1.4 11.5-9.8 22.7-18.6 11.1-8.8 21-17.1 21.9-18.5 2.7-4.1 1.9-10.3-2.2-18.3-3.9-7.2-7.9-11.6-11.8-12.5-1.2-.3-11.9 1.9-23.7 5-34.4 8.9-34.6 8.9-39.2 7.6-8.4-2.5-18.7-17.3-17.3-24.8.3-2.1 6.8-14.8 14.3-28.2 9.6-17.3 13.6-25.4 13.6-27.7 0-4.4-4.3-10.5-11.2-15.9-6.1-4.8-11-6.4-15.2-4.8-1.5.5-11.7 7.8-22.8 16.1-11.1 8.4-21.6 16.1-23.4 17.2-4.8 2.9-9.5 2.5-17.6-1.5-7.5-3.8-12.7-8.8-13.9-13.3-.3-1.5.8-15.4 2.6-30.9 3.1-27 3.2-28.3 1.6-31.7-2-4.2-10.5-8.9-19.8-10.8-10-2.1-10.8-1.4-27.2 26.4-7.7 13.1-15.2 25-16.8 26.5-2.6 2.7-3.1 2.8-13 2.8-8.7 0-10.8-.4-14.4-2.3-2.4-1.2-5-3.6-5.9-5.4-.9-1.7-5-14.9-9.1-29.2-5-17.5-8.1-26.8-9.5-28.4-3.5-3.6-10.8-4.9-21.3-3.5z"/></g></svg>