<svg width="561" height="310" fill="none" xmlns="http://www.w3.org/2000/svg"><path d="M383.433 68.55l1.205-1.153.738.855h.388l.971-.93.894-1.004 1.709-.744 1.244.893-.699 1.86v1.042l-.816.781-1.283.558-1.398.521h-1.398l-1.049 1.005-1.671-.558-.855-1.191-.388-.521-.156-.595 1.166.52.582-.558.816-.78zm-5.439 7.665l.932-.372h.778l.776-.744-.388-1.563h-1.243l.311-1.34v-.967l-1.011.298h-2.486l-.816.781-1.282.856-.933-.893-2.253.67.156 1.34.583.557.854.819.583.558-.855.67-1.165-.968-.622.595-.855-.819-1.942.373-.855-.446-.389.967.622.595-1.166.596v1.413l.933.893-.234 1.042h.855l1.088 1.042-.311 1.19 1.399.67 1.865.074.777.744h1.399l1.631-.446v-1.19l-1.01-.894.544-.52.816.78 1.438-2.492 1.359-1.302.584.558 1.243-1.19.388-1.117-1.399-.446-.932.893-1.165-.819-1.399-.818-1.399-.968.466-.967.739-.707.582 1.897.894.856 1.515.26zm1.477 8.408l-.7.596.544 1.488.894.856.738-1.377V85.07l-.544-.521-.932.074zm3.652 4.167l-.545 1.19.467.447.699-1.413 1.787-.373 1.555-.595 2.097-1.19-1.087-1.935h-1.477l-2.098-.67-.971.856-.894.855-.894.856.506 1.154.855.818zm-17.95-6.027l-.7-.67-1.243-.074.816.781.505 1.749h1.01v-.968l-.388-.818zm-37.998 28.797l-.855.149-1.437 1.376v.93h1.204l.389.893 1.01-.446 1.166-1.117v-1.785h-1.477zm50.427-51.418l-.622-.819-.466.819.505.483.583-.483zm-4.973 31.699l-1.477-.298-.466.372.855.372 1.088.819.466-.595-.466-.67zm-61.931 1.637l-.699-.372-.311.447.699.446.311-.52zm-4.04-6.994l-.778.446 1.088.521.777.52.855-.222-.233-.967-.855.222-.854-.52zm-3.653-4.168l-.932.373-.932-1.563-.7-.67-.855.968-.544 1.413v-1.041l.078-1.86-.543-1.042-.778.074-1.087 1.265.077 1.116-.466.745.311 2.009-.933.893.078 2.008-.466 1.712-.389 1.712.7.371 1.476-1.116.855-.52 1.942-.968 1.554-.149 1.943-1.414.932-1.711-.621-1.488-.7-1.117zm-10.956-7.441l-.699.819-.622 1.116-.544-.223.388-1.414v-1.488l-1.709.52s-1.01.224-1.243.299l-1.399.446-.544 1.116-.311.968-.699.818.233.968-1.321.967.622.52.932-.297.777 1.042.078.967.699.818 1.787.149.234.967 1.243-.744.621.968 1.71.595 1.632-.745.777-1.041-.621-1.191-1.011-1.34.777-.52.311-1.266-.389-1.413.156-1.414-1.865-.967zm-1.398 22.771l-.778.892-1.01.224.933.67.932-.894-.077-.892zm-12.122-.224l-.855-.074-.388.595.543.447.7-.968zm-8.859 20.314l-.932.447s.388 1.116.388.967c0-.149.7-.297.7-.297l-.156-1.117zm-6.294-5.283l-.388-1.413-.855.669.466.893.777-.149zm-.699 8.335l-.155.818h1.321l.699.669.078-1.116-.777-.149-1.166-.222zm-4.507-44.127l-.466.447.544.298.855.595.233-.745-1.166-.595zm-4.739 51.865l-.544.669.31.893.544.67.777-.818.311-.968-.699-.67-.699.224zm-4.896 4.688l.699-.596h1.088l1.01-.892-.932-.893-.932.223-.855.819-.933.743.855.596zm-1.865-10.418l-.699.595.466.67.932-.595 1.166.297-.311-.669-1.554-.298zm-2.642 3.646l-.932-.669-.389.967.622.521.699-.819zm-7.536-3.125l.777.075v-.744l-1.243-.298.621-.67-.7-.967-.854.298-.311-.075-.855.595.311.67-.621.819.155.521 1.399.371 1.321-.595zm-35.434 9.376l-1.243.595-.932.298.233 1.935.155 1.042.855.222.311 1.563 1.632.149.543-1.265-.777-1.265.078-1.414-.855-1.86zm-24.943-3.572l-1.087-1.339-.078-1.116-1.399-.447-1.709.447-1.011 1.265-.776.967.543 1.414 1.244.446 1.165.446 1.088-.743 1.321.223.699-1.563zm35.2-31.476l.932.893h1.166v-1.116l1.709.595.855-.893.855-.967h1.088l1.864-.818 1.322.446h1.942l1.282-1.228 1.515.112.699.968h1.632l.777.743 1.399-.372h1.943l1.282-1.228 1.515-.78 2.02-.745h1.865l1.088 1.637v1.786l-1.632 1.414-1.476 1.339-1.942.15-2.332 1.041-2.098-.744-1.01.967-2.409-.074h-3.108l-1.166 1.19h-2.408l-1.787.967.544 1.191-1.244.446-1.476-.148H215.2l-.156.818-1.398-.372v1.34l-1.399.967-1.166.818v-1.264l-.932.818.233 1.488h-.932l-.661-.632v1.823l-.68-.651-.873.836-.739.708h-1.011l-.776.967-1.01 1.637h-1.632l-1.321 1.042v1.414l-1.321.521-.467 1.488-1.087 1.041v1.861l-.544 1.339.699 1.935-.622 1.935.855 1.264.388 1.34-.466.447-1.32.595v-.968l-1.244-.669h-.854l-.933-1.34-.543.298-1.632-1.488-1.244-1.265.467-1.34 1.243-.372.466-.744-.855-.669.078-1.787-.544-.148-.544-1.34-1.165-.074-.933-1.265.311-1.637 1.243-1.637 1.477.149.466.521.543.223.234-.968 1.787-.52 1.399-1.414-.933-.967 1.244-.745 1.398.521.389-1.116v-1.116h1.787l.855.818.893-.855.194-.781 1.943-.373-.66-.632-1.671-.558v-.595l1.943-.522 2.02-.52 1.01-.967h1.321v-.893l1.865-.075-1.01-.967 1.632-.075.621.596-.078-1.489.777-.744-.854-.967.544-.819zm53.388-30.617l-.642.123-.417.4.642.615.867-.277.513-.492-.963-.369zm14.706-1.229l-.578.553.449.43.482.461.995-.891v-.615l-1.348.062zm3.082 3.566l.707.677-.931.891-.611 1.138.835 1.107.321 1.107 1.477 1.23 1.349-1.23h.899l1.349-.738 1.605-.492-.45-1.476v-1.845l.964-.8-.803-.768-1.638-1.568-.577-1.23-1.413-.369-.193 1.23-1.156.492-1.734 1.107v1.537zm.899 6.211l-1.605-.369-1.092-.123.193 1.353v.861l1.413.37.578.553.867-.83.481-1.2-.835-.615zm-17.724 31.733l-1.027-.615-.417.399.545.462.899-.246zM245.117 55.16l-.642.184.513.677v.615h.899v-1.169l-.77-.307zm-.193 5.227l-.449.676-1.67.308-1.092.553.835.37-.385.86.706.185h1.413l1.124-1.077.835-.8-.289-1.198-1.028.123zm-5.33-1.107l-.353.338.674.646 1.22-.43v-.985h-.706l-.835.43zm1.124 2.982l.353-1.014h-.963l-1.445-.031-.931-1.015-.707.677-.513.984v1.23l1.091.184.257.738 1.349-.307.867-.83.642-.616zm-5.876 3.229l-.417.4v.768h.866l.322-.984-.771-.184zm-2.44-1.783l.578.553 1.348-.307.385-.861.964.307-.514-1.107-.867-.83-1.252.892-.45-.43h-1.412v.922l-.771.738.449.43 1.542-.307zm8.701-10.855l-.931-.768-.385.738.674.645.642-.615zm-2.344.954h-1.027v1.107l1.091 1.045v.861l.964-.43-.578-1.169-.45-1.414zm-6.774 4.089l.352-.892h-.899l-.192.185.739.707zm1.829 1.691l-.706-1.168-.61.584.61.646.706-.062zm.578-3.997l-.706.123v.8h.899l-.193-.923zm.707 2.275l-.16-.154v.708h.738l-.578-.553zm.578 1.476l.321.308.578-.554-.899.246zm1.669-3.259h-.77v.861l.77.062v-.923zm-1.477-1.722h-.449l.449.8.418-.4-.418-.4zm-8.733 5.166l-.482.46.835.8.931.031v-1.476l-.642-.8-.642.985zm3.082-.861l-.963-.123.321.86h.642v-.737zm-7.256-3.935l-1.092.553v.738l-1.349-.923-1.027.37.321 1.475.963-.307v.983l1.028.246.931-.892 1.316-.522 1.092.308h1.606l1.155-1.107-1.091-1.046.738-.707-1.252-.707-.642.43-.642.615v.677l-.739.707-1.316-.892zm-1.092-1.354l.578.554 1.092-.43.449.43v-.923l-.738-.707h-.675l-.578-.215h-1.412l-.835-.8-.578 1.107.739.707.288.83 1.67-.553zm2.183 6.027l-.802-.83h-.546l.192.768 1.156.062zm-.578.799l-.578.554.45.43 1.092.246-.707-.676-.257-.554zm5.973-7.748l-1.285-.185v.8h.642l.643-.615z" fill="#B3B3B3" stroke="#000"/><path d="M453.802 38.433l.685-2.378 2.612-2.42 2.911-2.787 1.327-1.27 2.569-1.067 1.84-1.025 1.713-1.64 1.755-1.68 2.141-.82 1.541-2.132 2.911-.82 1.541-1.559 1.884-.82 1.199-.655 1.37 1.312 1.969-.575 1.755 1.271 1.156-1.107 2.055-1.066v-.984l-2.055.41-2.397-.164-1.541-.41.513-1.476 1.627-1.066-1.37-.328v-.738l.942.083.171-1.476.857-1.148 1.198-1.147 2.055-.738h.6l1.541-2.05s1.456-.41 1.969-.902c.514-.492 0 1.394 0 1.394l1.114.901.855.82-.941 1.886s1.284 0 1.798-.492 0 .984 0 .984v1.722l-1.969 1.23 1.541.246.942-.902 2.012.738v-.86l1.584 1.516 1.113 1.64.942-.246.941-1.148v1.066l.6 1.313h-1.798v.655l1.455.41-.77 2.132-1.97.164-1.798 1.885-.941 1.968-1.798.574-1.285-.492h-1.627l-1.455 2.05.642 1.23v2.091l-1.413 1.353-1.113-.82-1.113.82h-1.627l-.942-.738-.856-.492-.128.78.642.614-.771.328-.514.492 1.499.246v1.107l1.155 1.107 1.884-.492h1.285l.085 1.558.771-.738 1.327 1.271 1.413 1.353.685 2.378.342 1.886-1.37 2.131h-1.284l-1.798.738-.599 1.312 1.455-.574h.942l-1.37 1.558.856.82 1.113-.41v-1.558l1.028-.738 1.841-.04 1.07-1.025.514-.82 1.284.082 1.028-.164 1.883-.082v1.147h1.541l.429-.778h1.498l.899-.861 1.113-.164.942.738 1.37-.984.642 1.435 1.242 1.189v1.722l-1.713.656-1.113 2.295h-1.798l-.513.738 2.011 1.27-.642.615 1.456 2.133.599 2.623v2.952l.514 2.296.856 1.968.429 2.624.856 2.542 1.627 1.394v2.377l.856 3.28 1.455 1.558.942.902-1.455 1.23-1.541-.738-2.141.656-1.113 2.46-1.798 2.46.942.902-.685 2.296v1.23l1.455 2.131v1.313l-1.627-.738-1.198-1.149-1.028.083.942 2.377v1.558l1.584.697-1.584 1.517h-1.028v2.132l-.941.902 1.284 2.05 1.028.984 1.198 1.147 1.627 1.558.342 2.296.257 1.804 2.355 1.189 1.413 1.353h2.397l-.642-1.394v-.697l.814-.779.599-1.23 2.226 2.132.428 1.886 2.226 1.476 2.205.471.878-.84h1.412l1.67 1.599-.685 1.558-1.712.492.514 1.968 1.798 2.869 1.584.369 1.241 1.189 2.911-.328 1.713 1.312.599 1.476-1.027.656-1.456.902-.856 1.804.599 3.28 1.713 2.542 1.498.533.728.697 2.483.574v.984l-1.884.246v1.476l-.685 1.476.857 2.951 1.455.575 2.226 2.131 1.627 1.476.343 2.624.856 3.444.428 2.214v1.639l-.942-1.23h-2.483l-1.584-.778-1.241-1.19h-1.713l-1.541-1.475-2.997-1.313-2.826-1.147-3.253-1.64-.942-1.23-1.541-.984-1.713-.328-3.681-1.066-2.398-1.23-2.312-1.476-1.113-1.968-2.483-2.378-1.712-1.721-.001-1.722-1.198-1.148-.257-1.886-1.456-1.968-1.584-.328v-.697l.728-.697.599-1.23-.813-1.353.771-.738.642-.615-.856-2.46-.428-2.623-1.028-3.034-1.627-2.05-.685-2.706-.77-2.542-.857-2.05-1.027-3.034-1.028-.82-.086-1.64.6-1.968v-2.542l-1.027-.984-1.114-2.05h-1.112l-1.071-.368-.984-.944-1.2-1.476-1.798-1.066v-1.885l1.627-1.476-.556-.533-1.327 1.27-1.884.985v1.721l-.514 1.313 1.027.901 1.499 1.435 1.413 1.353h1.713l-.172 1.066-.771-.082-.813 1.107 1.07 1.025v2.624l.857 1.968.171 3.115-.599 1.887-.686-1.639-1.541-.738.001 2.05-1.285-1.23-.856-.82-.685-1.394-2.398-2.132.685 1.804-.685 1.968h-2.311v1.312l-.771 2.706-.942 1.066.086 3.608 1.541.984-.257 2.296 1.541 2.296v2.46l.471 3.238 1.413 1.353v1.476l1.199 1.148 1.113-.164.984-.861.728-.697h1.285l-.086 1.558-1.37.41v2.214l-2.569.41.599 2.869-.256 1.23-1.627.655v1.722l-.599 1.558s-2.013.452-1.627.083c.385-.369-.771-.738-.771-.738v-1.066l.343-1.067 1.412-.451-.642-.615-1.541.574-1.627.246v.738l-2.397 1.067-1.199 1.393-1.37.328-1.113 1.067-.428 1.229.427 1.559.943.901-1.113 1.148-1.798-.656.556 1.763-1.327 1.271-1.199 1.066h-1.027l-1.028.902.685 1.066.514.492-1.456.901h-1.969l-1.927 1.845-1.241 1.189-1.37 2.214-1.456 1.394-1.455 2.788-.257 2.706 1.37 2.624-1.284 1.23-.428 2.623.77 1.886 1.199 1.148-1.028 1.639v5.166l-.513 2.05v2.788l.856.902v4.182l-.771 2.788v2.296l-1.284 2.05v2.049l-.685 1.804.77 1.661h1.306l1.006-.964h1.413l1.113-1.066 1.242-1.189.856.82 1.027.492v1.066l.814 1.435 1.028.984.899-.861v-1.312l-1.199-.492v-1.229l.942-.984v.819l1.027.738.514-.164.514.492v2.542l1.712-.655v-.82l.942-1.23.599-.492.942.656.214-1.353-.813-.779-.771-1.394-.942-1.64 1.541-.819.943-.903 1.883-.41h2.226l1.841.206.813.778s1.97-.328 2.398-.328c.428 0 1.627-.492 1.627-.492l1.07 1.025-.814.779-.599.574-.513.902h2.996l.343 1.066 1.284 1.23 1.585-.205.813.779.856 1.558.257 3.116 1.113 3.28 1.755 2.418 2.183 2.091.857.821.428 1.393 1.713 1.64 1.198 1.968.429 1.148 1.583 2.337 1.327 1.27v3.444l-.513 2.952.942 2.952-.086 3.033.942 2.378.685 2.625.513 2.377.514 3.198v3.116l-.514 1.64v7.134l-.513 2.951.513 3.034-.171 3.936v1.886l-1.712 2.706-1.113 2.295-1.285 2.297h-1.113l-2.14.819-1.798.984-1.242-.492v-1.107l-.642-.615-.643 1.394v1.517l-.727-.697-1.113-1.066v.82l-.343 2.049.343 1.395-.471 1.599-.728.696v2.132l-1.627-.081-.685-.657.6-1.886 1.027-1.968v-1.639l-.899-1.927-1.841-1.763-.942-.902-.771-1.886-1.626-1.558-1.541-.492-.043-1.599 1.07-1.025.942-.901v-1.64l1.198-1.149 1.371-.655 1.413.451 1.241-1.189.771-1.476-1.37-2.05.684-1.722-.856-1.804-.171-1.886-1.199-1.558.343-1.311-.942-1.559-.428-1.803-1.712-1.722 1.284-1.23v-1.805l-1.07-1.024-1.242-1.19-.343-1.065h-1.455l-2.055 1.065-.514 1.641-1.37 2.132-1.541 1.885.685 2.051-1.798 1.393-1.798.984-1.541.492-.429 1.476h-1.626l-1.627-.902-1.199-.41v-1.886l-1.37-1.147-1.113-1.067-1.841-.451-.985.943-1.969-.492-1.627-.409-2.483.327h-2.312l-.941.903-2.569.901-2.569-.492-1.07-2.008-1.242-1.19s-1.455-.819-1.455-1.148c0-.329-1.627-1.558-1.627-1.558l-2.055-.327-.856-1.968-1.97-1.476-1.37-1.312-1.884-.492-.684-1.722-1.713-.738-1.028-.984-3.424-.328h-1.798l-2.055 1.066-2.569-.41-1.97.656h-2.14l-2.912 2.05-1.369 1.312-2.698 1.517-1.327 1.271-.941 2.706-.686 1.639.943 1.148 1.327-1.025 1.07 1.025 1.199 1.149.685 2.623-.685 1.394-.514 3.526v2.213l-.942 2.297 1.284 2.377.771.738v2.297l-1.798.492-1.156 2.582-1.67 1.599-2.825.984-3.168-.246-2.312-.41-1.712.984-2.398 1.312-1.798-.902-1.627-.574-2.14.902-1.798 1.722-1.285 1.23-.728 2.418-1.498 1.436-1.969 1.311-2.74 1.23-2.098 2.01-1.07 1.024h-2.74l-2.484.738h-3.51l-2.569.328-2.311-.738-.686-1.229-1.198-1.149h-3.254l-2.997-.41-1.199-.738-3.938.533h-2.441l-2.012 1.927-2.226.492-2.14.574-3.083-.246-2.097-.86-1.327-1.272-1.242-2.501-1.584-1.516-2.226-.82h-2.141l-2.44.614-1.67-1.598h-3.339l-1.97-1.394-.984.943-1.327 1.271-1.071 2.091-1.155 1.107-.343 2.132 1.071 1.23v1.844l1.498 1.435v1.968l-2.012 1.271-1.927 1.845h-4.11l-2.311-.574-2.398.41-1.712-.492-2.484-.821-1.369-1.311-1.627-1.558-1.97-.573-2.311.901-1.456-1.394-1.841-.779-1.499 1.435h-1.883l-.6 1.722h-2.226l-2.825 1.722-1.713 1.64h-1.712l-.343 1.722-2.012.451-1.413 1.352-2.568-.081-2.141 1.147-1.113 1.067-2.483-.411-.771-1.23-.942-1.64-.471-1.68-1.327 1.271-2.226.82-2.055-.657-2.311-.573v-1.968l-1.799-1.066-.684-1.476-1.456-.902-.342-1.968-1.199-1.066-1.605-.676-1.049-1.004h-2.184l-1.07 1.024-2.141.329-.857-.821-1.883.328-1.028-.984-.941-.901v-1.23l-.942-1.066-1.371.409-.941 1.887-1.884.327-1.113-2.131-.6-1.886-.428-2.132-1.455-2.46v-1.968l-1.37-1.23v-2.706l-1.028-3.279-1.455-1.395-.942-.901-.985-2.009-1.07-1.025-1.455-.574v-1.476h1.198l1.028-1.312-.428-1.148h-1.542l-1.284 1.23-1.798.082-1.327.041-1.413 1.353-2.397.656-2.055 1.066-.943-1.312-1.798.82h-1.455l.514-2.214 2.055-.902v-1.147h-1.713l-1.541-.903-.942.903-1.712-.492.557-1.928-1.242-1.189-1.712.984-1.884-.492-.471-1.434 1.07-1.025v-1.558l.428-1.148-.685-2.05-1.284-.574h-1.541l-.771-1.476h-2.141l-1.712-.984-1.884-.165-1.027 1.395h-2.141l-1.884.492-1.541-.82-1.884.328h-2.312l-2.226-1.107h-.899l-.985.942-1.712.329-1.627-.821h-1.456l-1.969-.573-2.911.081-2.141-.409-1.541.409-1.37-1.147-1.969-.984h-1.798l-.6 1.804.6 1.23-1.199 1.148.942.574.941.902 1.156 1.107-1.07 1.024h-1.198l-1.456-1.393-2.226.081-1.455.574.599 2.051-.599 1.476-1.456.409-1.712-.409-.685 1.721.557 1.189 1.198 1.148.813.779.343 1.394 1.199 1.148-1.199 1.558-1.113 1.065h-1.884l-1.927.123-.984-.942-.685-1.333h-.878l-.92.882h-1.499l-1.67-1.599-.321-.922-1.262-1.21v-2.091l-1.071-1.025h-1.969l-1.627.574-.6-1.23-1.627-1.229-1.455-.738-1.969.902-1.799.246-1.455-.41-1.027-1.887-1.456-1.23-1.027 1.641h-1.114V250.8l1.028-.984-.685-1.394-.856-2.132-.343-2.214-1.284-1.476-2.055-.738-.599-1.393-1.114-1.067-2.055.329h-1.198v-1.559l-.6-1.639-2.097-.37-1.07 1.025-1.97.656-1.712-.902h-1.798l-.856 1.23h-3.768l-.429.902-1.113 1.066-.17 1.558-2.099-.368-1.241-1.19v-1.64l.557-1.599-.9-.861H88.62l-.6 1.312-1.113.779h-1.67l-1.327 1.271-1.113 1.066v1.476l-1.456.574-1.54-.082-1.114 1.066-1.37.901.556 1.599 1.242 1.19-.514 2.131-1.113 1.067 1.113.655 1.627 1.476 1.028.984-.428 2.132.47 2.788v2.255l-.898.861-.857-.903-1.284-.163.171 1.476.728 1.435 1.07 1.025-.856.819-1.456.165h-2.911s-1.028.123-1.841.123-.642-.615-.642-.615l-1.285-.329-.599-.573-1.54-.246v1.148l-1.2.492-1.455 1.639h-1.627l-1.798.492-1.05-.266-.877.841v1.353l.9.861.513 1.557-.428 1.558-.385 1.435-.985.943v.574l-.856.737-1.884 2.952v2.297l.514 2.787-.343 2.133.171 2.623-2.055.902-1.37-.574-1.97.656-1.883-.41-.257-1.558-.942-2.706-.17-1.968-1.37-.901v-1.067l-.686-1.722-1.198-1.476.77-1.23.514-1.393-1.284-1.312-.428-1.476-1.456-.164-.3-.861-1.07-1.025-1.884-.246-1.199-1.148-.342-2.623-1.199-1.067.343-1.639-1.456-1.148-.77-1.886-1.285-.574-1.884-1.23-.6-1.968-1.284-1.885-.427-1.641-.942-.164-.685-.819-.856-1.149-1.114.165-.684-1.968.256-3.772-.342-2.788-.685-1.394-.856-1.229.17-2.46-1.027-.903-.685-1.311.514-1.476-.428-1.64.942-.903 1.027-.163 1.37 1.639 1.285.411.6-1.23 1.455-.574 1.969-.083h1.027l1.285.411.257-2.05-.685-1.23.342-1.066 1.028.164.942.656 1.027.902.77-.738 1.2.492 1.968.246 1.456.574.343-1.476-1.028-.738-1.455-.328-.942-.902-1.027-.328 1.284-1.312 1.883-.819 1.627.655 1.456-.574 1.37 1.394 2.055 2.132 1.884-1.804 1.284-.738-.343-1.804 1.199-1.148 1.198.165-.085-1.313 3.168-.409.6-1.394.684-.82-1.455-.656v-1.722l-1.37-1.476-.514-1.886-1.284-.738-1.37-1.476.513-1.722-.514-2.542-1.626-1.147-1.884-1.394-.6-1.886-1.284-.984-.428-1.148 1.114-1.23.856-1.804v-1.722l-.942-1.64-.941-1.394.856-.655.514-1.23h1.027l.77-.656.6-2.214.171-1.312-.685-1.64-.942-.902-1.285-.164-.941-.984-.77-1.066-1.157.943-.899-.861-.77-1.23.77-1.312 1.627-1.558 1.114-1.23.427-1.476 1.285-.082.942.984.513 1.23 1.713.574L53 177.66l.428-1.64.513-1.804-1.284-1.229.856-.575-.085-1.393.513-1.968.942-2.132.685-1.804 1.712-.492.6-1.23 1.627-1.312v-2.788l-1.456-1.312-1.627-.409.514-1.23.428-1.312-1.199-1.148-.77-1.64.257-1.148 1.627-1.558.941-1.639-.428-1.476 1.37-.329 2.055-1.229v-1.722l.857-.984 2.14-.082.942-1.067.085-1.229 1.799-.656 1.455-1.886 1.97.082 1.712-.984 2.311.492.343-1.23.77-.738 1.456.656 1.199 1.23 1.884.574.685 1.476.685 1.639 1.027-.984-.171-2.377-1.541-1.312v-2.788l1.37-.328.428-.41-1.884-.738-1.113-1.23 19.18-.082 3.595-1.23v-2.132l.6-5.411h2.397l2.055-1.558v-2.132l1.542-.574v-2.788l1.37-.082 2.996-2.296 1.456.655 3.168-5.657.214-1.517 2.612-2.501h4.366l1.371-2.296v-4.427l2.739-1.313 3.597-1.721 2.482.901h1.456l1.199 1.148 1.47-.98-.357 1.718 1.455-.164 2.055.082v1.313l.428 1.475-.942-.574-.984-.943-.899.861.427 1.558v1.558l1.456.738 1.113 1.066v1.722l1.242.574v1.927l1.413 1.353.684 2.296v2.378l-.427 2.05.513 1.148.043 2.501 1.498 1.435-.085 1.804-.343 2.952-1.499 2.5-2.269 2.173h-2.397l-2.655.492-2.312-.82-2.526-1.353-1.582-1.517v-2.214l-1.627-1.558-.77-1.722-.6-1.64-1.112-1.803-.6-3.034-1.199-.492.386-1.845.985-.943-1.199-1.148-.556 1.435-.814.779.343 1.804.043 2.091-.942.902 1.242 1.189-.343 1.804-1.199 2.542-2.097.615-1.67 1.599-.642 2.911-1.584 1.516.514 1.722.771 2.132-1.242 2.091 1.755 1.681 1.883 1.804 2.14-1.476.428-2.05-1.113-1.066.171-1.804v-1.394l1.456-1.476h1.455l.514 3.69.471 2.419 1.498 1.435.942 1.886 2.44.697.728-.697-.599-1.394 1.455-1.148.086-2.869 2.655.41 2.482-.902 2.055 1.066 2.312-.697h1.584l.985.942 1.456 2.132-1.199 1.147v1.804l1.07-1.27 1.499-1.435 2.055-.41 1.712-2.378v-2.05l.685-1.394 2.226-1.066v-1.312l2.141-1.23v-2.05l-.343-1.968h1.456l.471 1.025 1.926 1.845 1.456 2.132v2.869l-.514 1.476-.771.738-1.284-1.23-1.798-.41-2.74.902v2.132l.685 1.968v1.639l1.969.492 1.884.821 2.141-.984v-1.476l2.226-.492 2.141.984-.343-1.312 3.339.574 1.798-.328 3.254.409h1.884l.941 1.64h.857v-1.476l2.74-.82h1.456l.6 2.132h-1.628l-.513 1.476-1.285.41 1.97 1.721h1.37l2.568-1.066 2.441.451 2.654 2.542.899-.86h1.798l2.269-.698.9.861-.257 1.148-1.37.902v1.394l1.627 1.312.128-1.517.728-.697 1.712.41v-1.312l1.627-.246.343-1.968-.257-2.378 1.541-.738 1.327-.369 1.584 1.517.685-.656 1.755 2.091 2.013 1.927 1.627 1.558 1.07 2.091 2.012 1.927 1.37 2.05 1.456 1.886v1.639l1.198 1.806 1.712-.983v-1.722l1.969-1.722-1.37-.41-.942-2.132.343-2.296-1.627-1.066-.899-1.763.813-.778 1.713-.821v-1.312l.428-1.967.77-.984v-1.23l-1.113-.329.599-1.639.942-1.148 1.712-.574 1.841-.861.642-.615 1.456-1.394 1.113-2.377.856-1.968.942-1.968 1.627-.82 1.028 1.393h2.055l1.027.984h1.798l.771 2.788-.857.82-.385 2.993-2.44 2.337-.685 2.132 1.455 1.23-.513 2.788-.428 2.213-1.713 2.46-.599 3.526-.942 3.116-.685 1.558.642 2.173 1.499 1.435-.257 1.312-1.884 1.394-.342 3.034-1.884.492-2.226 2.132-1.285 1.804-1.198.655-2.141-.409-1.284.82-1.413-.861-.899-.861-1.284-.41v1.558l1.284 1.886 1.284.574 1.713 1.148 1.455-.082 1.027 1.393h1.542s.642-1.107.299-1.435c-.343-.328.899-.861.899-.861h1.113l.514-.492 2.141-.574 1.712-.902v-1.721l.771-.738 1.327-1.271 1.07-1.025.514-1.968-.428-1.722-.171-1.558 1.156-1.107 1.156-1.107h1.798l1.969-.246.556 1.599.813.779 1.028 2.542-1.368 1.311.086 1.968v1.23l1.712 1.64 1.969.409v-1.147l-1.926-.533-.728-.697v-.984l-.172-1.476 1.371-.41.513-1.066-.513-1.558.599-1.312-.856-1.64-1.114-.984-.684-.656-2.098-.697-1.198-1.148-.985.944-1.285.574-.684-.902h-1.542l-.257-1.558 1.028-.984-.257-2.624 1.199-1.804.77-2.131 1.713-1.64-.6-1.804-.514-1.558.214-1.681-1.241-1.189 1.37-1.312 2.141-2.05h1.798l1.027-1.558.685-1.722-.6-1.394.6-1.23h1.37l-.428 1.722v2.378l-.342 2.132-1.542 1.475v3.526l1.798 1.312 1.028.821 1.327-.779 1.327 1.271 1.455 1.312v-.984l-.556-1.271-.985-.943-1.541-.738v-.656l-1.284-1.23-.599-1.804 1.798-1.148.856.82 1.37 1.312 1.028-.902-.343-1.066-.128-.943.984-.943 1.713.328 1.412-.205 1.156 1.107 2.226 1.148-.599 1.639.556.533 1.499 1.435h2.312l.342-1.312-.941-1.23.085-1.148-1.627-.574-1.198-1.885-.685-.656.513-1.968.771-1.64-.685-.656-.428-2.05 1.712-1.476h4.025l2.055.738v-.492h3.339l2.226-.901h1.626l.857-.82-.857-1.23-1.027-.329-.857-.82.985-.943c.642-.615.642.615.642.615l1.028-.246-.685-.738.471-1.025-.728-.697.857-1.147 1.198-.902-1.198-.082-.086-1.23 2.398.082.941-1.886 2.355-.861.899-.861 3.211-.451.813-.779 2.312-.655.513-.575-1.541-.492.857-.82 2.226-.492 1.883-.246.428-.901 1.542-.246-.814 1.476v1.189l1.071-1.025 2.655.082.256-1.313 1.713-.328 1.712.328-.771-.984-1.027-.737-.514-.902h1.884l1.969-.574h.6l-.171-1.394-.686-.492v-1.968l.429-1.312 1.284-3.034 1.541-1.066 1.37-1.394 1.713.984 1.284-.164.385 1.681-1.327 1.271-1.113 1.394 2.718.143.536-.512h1.669l1.242 1.189-1.113 1.066s-.086 1.066.428 1.066c.513 0 1.884.574 1.884.574l.428-1.394-.771-.737 1.884-.984h1.712l1.756-1.19.984.944 1.327-.615.985.943.856 1.64 1.028.82.599-.656.899.86 1.156 1.108-.171 1.722-1.713-.329.686.656 1.712.902 1.07 1.763-.984.942v1.64l-.857 1.148-.813 1.599-.985.943-1.712 1.968v.82l-.514 2.296-1.284 1.23-.514 2.542-2.055.492-.642 1.845-1.413 1.353-.343 2.131-.427 1.476 1.541-.656-.343-1.639 1.541-.902s1.37-.41 2.141-.41c.771 0 1.028-1.476 1.028-1.476l1.455-1.148 1.37-.492.813-1.516-.642-.615-1.027-.082.086-.657-.086-1.312 1.284-.082h1.028l1.455.328 1.713.655.342-.983 1.071-1.436.899.861v1.64l1.027 1.394h1.199l-1.199-1.065.813-.779 1.584-1.517 2.141-1.066 3.253-.574 2.569-.738.643.943-.6.574 1.413 1.353h2.654l.086-.656.257-.901 1.027 1.558 1.798-.656 1.798-1.476s1.884-.328 2.312-.328c.428 0 0-1.476 0-1.476l-.257-1.64-1.284-1.885.343-1.886.257-.984 1.027.984 1.07-.779.899.861 1.37.902.343-.984.685-.166.685.738.684-.492s-.085-1.516.557-1.516c.643 0 .814-.779.814-.779l1.883 1.394.6-.574 2.054.655-.684 2.009h.984l.985.943v1.558l1.627-.984.856.82v1.804l-1.113.329-.685.655 1.199 1.148s.941-.41.941-.82c0-.411.771.738.771.738V116l1.755-.042 1.67 1.599 1.284.82 1.799.328.77-.738 1.969.984.172-1.557-.856-2.706-.514-1.23v-1.148l-1.114-1.066v-1.476l2.141.246 1.199 1.148 1.884-.492h2.14l-.428-2.132 1.199-2.131 2.226-.492 1.627-.082 1.883.492v-1.23l-2.011-.861.727-.697.942-.984 1.627.082 1.284-1.23-.599-.328-1.284-1.23-1.456-.738v-1.804l-.599-.492-.857 2.132-1.027-.656v-1.722l1.884-1.64-.257-1.148-1.798-1.066 1.113-1.066h1.627l2.397-1.148.685-1.885 3.168-1.148 2.483-1.066s.343.328.343.82c0 .492-1.627 1.066-1.627 1.066l-.6 2.214 1.456-.656 1.285-1.23 1.626.492-.428 3.197 1.456-1.312v-1.558l-.514-2.624.343-1.147.77-2.05 1.798-.82 2.569-1.067 1.541 1.067s-.728.943-1.284 1.475c-.557.533.599.903.599.903h1.884l1.199-1.312s1.369 1.393 1.626 1.64c.257.245-.257-1.886-.257-1.886l2.312-1.23 1.627.82 1.798-.082 1.627-1.558 1.713-2.05v-2.378l2.14-3.034 1.798-1.721 1.627-1.886 2.826-.41 2.355-.123 1.155 1.107 2.398 2.296 2.14-.902 1.542-1.189h1.669l-.813-.78v-1.147l1.626-1.558v-2.706l.771-1.394h1.284l1.114-1.066v-1.64l2.14-1.475.514-1.968-.856-.82.342-.984-1.198-1.64.942-1.64.899-.861 1.627 1.558-1.242 1.189 1.284 1.23h1.969l1.371-.492 1.883-.82 1.713-.41.428-1.312-.514-1.312-.942-.164-2.911-1.23-2.14.328-.514-1.148h-1.713v-.901l.429-1.558 1.541-.738.171-1.722 1.37-.738h1.199l-.514-1.394.514-1.476 1.455-2.05z" fill="#B3B3B3" stroke="#000"/><circle cx="72" cy="236" r="4" fill="#D9F915"/><circle cx="166" cy="232" r="4" fill="#D9F915"/><circle cx="150" cy="212" r="4" fill="#D9F915"/><path d="M467.228 195.906l-1.408.284-.74.78v2.057l1.259-.496.667.638.741-.709.296-1.42-.815-1.134zm19.187-7.023l-.593.142-.443-1.206v-1.065l1.926.497.962.425.519 1.136 1.037.993 1.853.355.444 1.135 2.074 1.277h1.111l.889 1.206.741 1.916 1.148 1.099 2.185 2.164 1.407.354 1.927.71 1.852 1.561 2.519 1.347 1.629 1.348 2.149 1.065 1.852 1.064 1.186.922 2.074.78-.296.923-.741.709-1.407.425h-1.111l.296 1.49-.296 1.064v.851l1.259 1.845s1.186 1.276.963 1.489c-.223.213.074 2.2.074 2.2l.964.922 1.481 1.42 1.26.78h1.926l1.111 1.064h1.259l.667 1.348 1.63.071 1-.958 1.741.958 1.037 1.277s.371.851 0 .851c-.37 0-2.37-.922-2.37-.922l-.852.815h-1.889l-.593 1.455.371 1.419 1.185 1.135.889 1.844-1.185.923-.964-1.135-1.259-1.207-2.222-1.986v-1.348l-1.482-1.418-1.407-1.348-.963-1.206-1.186-2.2-1.482-1.348-1.555-.851-1.482-.425-1.26-2.554-2.741-3.618-2.222-2.129-1.852-1.773-1.63-2.128-1.038-1.632-2.814-1.206-2.223-.922-1.334-.142-1.778-2.341v-1.064l-1.926-1.845-1.037-1.844-2.074-.639.519-1.419v-1.064l1.703.497.296-1.419-.999-.958v-.532l-.982-.941-1.427-.478zm62.6 37.031l.296 1.489.148 1.42.594.212V227.9l.444-.922v-1.277l-1.482.213zm6.075.922l-.963-.07v.637l.963.497v-1.064zm-2.445-9.647l-.148-1.633-1.26-.354-.37 1.845.482.46-.407 1.383.147 2.129.89.354.296-1.135-.445-2.269.815-.78zm1.186-4.825l-.519-.71-.371.355.297 1.206.593-.851zm1.333-4.825l-.963-.213.37-1.844-.518-1.135.296-1.206 1-.958.259 1.313-.222 1.348.297 1.56-.519 1.135zm-40.819-105.564v-1.986l-1.408-.568-.889.497v1.561l-.148 1.418.889.568.593.71.073 1.276 1.186.426-.296-1.277-.519-.993.519-1.632zm27.781 6.811h1.778l1.111-1.064-1.408-.426-1.408.568-1.333-.497-1.037.355.519 1.064h1.778zm3.52 53.598l.481.957-.148 1.277-.075 1.632.778.744.853-.461v-1.702l.777-.745-.63-1.454-1.036-.994.073-1.276-.74-.71-.444 1.277-.704.674.815.781zm4.778 9.116l-1.26-.781v1.064l.741.355.519-.638zm4.741 20.006v2.837h1.037l-.296-1.205v-1.703l-.741.071zm-8-87.829l-.963.638.518.497.704-.674.704-.674-.963.213zm-97.109-78.391l-.765-.787 1.133-1.573-.198-1.708v-2.035l-1.105-.84-.68-.244-.594.596-1.303.651-1.062 1.017.099 1.75-.453.434.226 1.41.85 1.193.878 1.954 1.359.27.921-.881.694-1.207zM24.422 130.931l1.333.287 1.142-.313.435-.807 1.033.157.966.924.04 1.263.79.235.163.989 1.223.208.272-.937-.666-.638.571-.547.367.352 1.17.937v1.406l-.164 1.224.68 1.068.68.442.245 1.589-.598 1.198-2.856 1.38-4.324-4.922-2.502-5.495z" fill="#B3B3B3" stroke="#000"/><path d="M14.107 217.369l-.466-.391-.588-.447-.433-.303-.4-.257-1.59-.038-.924.102-.781-.432-.769-.228-.443-.266-.677.583.091.812.665.33.768.228.443 1.18.09.913-.234.736.118 1.015-.326.951-1.094.52-.573.571-.833.089-.625.976.338 1.193.313.888 1.237.786 1.354-.139.795-.393 1.198-.533.872.228 1.12.698.332.593.308.375.571.498 1.315.435 1.356.02 1.53-.019.624 1.235.356.894 1.796 1.112 1.748.317.62-.963 1.463.216-1.395-1.351-.157-.545-.256-.413-.27-.276-1.556-.238-1.712-.899-1.218-1.807.76-1.078.354-1.573-.202-1.429-.216-.197-.487-.348-.091-.261.37-1.555-.868-.832-.033-1.289-1-.159-.167.643-.824-.072-1.075.17-.621-.576z" fill="#B3B3B3" stroke="#000" stroke-linecap="round"/><circle cx="80.5" cy="196.5" r="6.5" fill="#D9F915"/><path d="M550.054 227.9l.445-.922v-1.277l-1.482.213.296 1.49.148 1.419.593.212V227.9zm5.037-1.064l-.963-.07v.638l.963.496v-1.064zm-3.852-11.634l-.37 1.845.481.46-.407 1.383.148 2.129.889.354.297-1.135-.445-2.269.815-.78-.148-1.633-1.26-.354zm2.593-2.838l-.519-.71-.37.355.296 1.207.593-.852zm1.333-4.825l-.962-.213.37-1.844-.518-1.135.296-1.206 1-.958.259 1.313-.223 1.348.297 1.56-.519 1.135zm.742-14.401v-1.703l-.74.07v2.839h1.037l-.297-1.206z" fill="#FECE2C" stroke="#000"/></svg>