<svg width="80" height="113" viewBox="0 0 131 153" fill="none" xmlns="http://www.w3.org/2000/svg"><path d="M109.651 48.026v54.447c-9.498 11.685-29.594 31.586-45.077 30.673-15.408-.909-34.04-19.719-42.804-30.644V47.556l45.309-23.128 42.572 23.598z" fill="#fff"/><path d="M124.803 109.458V35.34M6.618 109.458V35.34M3 40.29L72.699 4.714m-10.809.074L128 41.434M5.103 106.494c10.606 13.31 37.273 40.239 59.092 41.467 21.819 1.229 50.506-27.133 62.123-41.467m-16.667-2.965v-1.056m0 0V48.026m0 54.447c-9.498 11.685-29.594 31.586-45.077 30.673-15.408-.909-34.04-19.719-42.804-30.644m87.881-.029c.54-.665 1.046-1.303 1.515-1.909m-1.515-52.537v-.828m0 .828l-42.572-23.6m42.572 23.598l4.072 2.258M21.77 103.53v-1.027m0 0V47.556m0 54.946a98.638 98.638 0 01-1.515-1.938m1.515-53.008v-.357m0 .357l-3.618 1.847m3.618-1.847l45.309-23.128m0 0l3.772-1.925m-3.772 1.925l-3.341-1.852" stroke="#fff" stroke-width="10"/></svg>