<svg width="79" height="69" fill="none" xmlns="http://www.w3.org/2000/svg"><path d="M0 42.89c0-3.102.67-5.528 3.607-5.683-1.306-.127-2.15-2.196-1.993-5.183.154-2.986 1.35-5.587 4.326-5.431l12.066-.013c-.031-.351-5.09-9.658-10.717-18.536A5.422 5.422 0 019.385.682a5.388 5.388 0 017.338 2.104s3.582 5.263 6.993 7.915c9.527 7.405 30.379 17.21 31.426 21.673h16.796c3.8 0 6.885 3.682 7.012 7.49.029.255.05 17.444.05 17.444C79 61.48 75.629 64 71.469 64H55.003c-.087 1.94-2.89 5.221-9.55 4.987l-35.128.01c-3.195 0-4.738-.99-5.06-3.644-.329-2.72-.2-4.778 2.054-4.977l-1.894.018c-3.194 0-3.933-2.597-3.933-5.803 0-3.153.72-5.634 3.146-5.792h-.734C.708 48.8 0 46.094 0 42.89z" fill="#fff"/></svg>